<svg width="400" height="300" viewBox="0 0 400 300" fill="none" xmlns="http://www.w3.org/2000/svg">
  <!-- Background -->
  <rect width="400" height="300" fill="#121212"/>
  
  <!-- Navbar -->
  <rect y="0" width="400" height="40" fill="#121212"/>
  <rect x="20" y="14" width="60" height="12" rx="2" fill="#FFFFFF"/>
  <rect x="300" y="12" width="80" height="16" rx="4" fill="#FFD700"/>
  
  <!-- Hero Section -->
  <rect y="40" width="400" height="110" fill="#0D0D0D"/>
  <rect x="110" y="65" width="180" height="18" rx="2" fill="#FFFFFF"/>
  <rect x="140" y="92" width="120" height="10" rx="2" fill="#FFFFFF" opacity="0.8"/>
  <rect x="150" y="115" width="100" height="24" rx="4" fill="#FFD700"/>
  
  <!-- Welcome Section -->
  <rect x="140" y="165" width="120" height="12" rx="2" fill="#FFFFFF"/>
  <rect x="80" y="185" width="240" height="8" rx="2" fill="#A0A0A0" opacity="0.4"/>
  <rect x="100" y="200" width="200" height="8" rx="2" fill="#A0A0A0" opacity="0.4"/>
  
  <!-- Service Section -->
  <rect y="220" width="400" height="40" fill="#1A1A1A"/>
  <rect x="160" y="232" width="80" height="10" rx="2" fill="#FFFFFF"/>
  
  <!-- Footer -->
  <rect y="260" width="400" height="40" fill="#3498DB"/>
  <rect x="160" y="275" width="80" height="8" rx="2" fill="#FFFFFF"/>
</svg>

