<?xml version="1.0" encoding="UTF-8"?><svg id="Layer_2" xmlns="http://www.w3.org/2000/svg" viewBox="0 0 782.24 782.24"><g id="Layer_1-2"><path d="M77.25,287.88c27.4-21.41,60.17,0,60.17,0v-48.81c-47.72,7.71-60.17,48.81-60.17,48.81Z" fill="#010101"/><path d="M77.25,501.95c27.4-21.41,60.17,0,60.17,0v-48.81c-47.72,7.71-60.17,48.81-60.17,48.81Z" fill="#010101"/><path d="M239.07,137.42h48.81s-21.41-32.77,0-60.17c0,0-41.1,12.45-48.81,60.17Z" fill="#010101"/><path d="M453.14,137.42h48.8s-21.41-32.77,0-60.17c0,0-41.1,12.45-48.8,60.17Z" fill="#010101"/><path d="M59.59,59.59c24,85.19,78.77,96.85,98.24,98.24-1.39-19.47-13.05-74.24-98.24-98.24Z" fill="#010101"/><path d="M640.23,70.26c-2.76-16.48-11.21-31.81-23.83-43.37-12.91-11.88-28.76-19.04-44.66-23.01-32.02-7.94-67.41-3.52-96.8,11.87-14.71,7.58-27.97,18.09-38.43,30.19-4.58,5.22-8.55,10.74-12.16,16.39-3.84-13.42-11.46-25.76-22.02-35.44-12.91-11.88-28.76-19.04-44.66-23.01-32.02-7.94-67.41-3.52-96.8,11.87-14.7,7.58-27.97,18.09-38.43,30.19-3.11,3.54-5.91,7.24-8.56,10.99-9.9-8.67-22.11-16.59-35.87-22.24-16.48-6.84-34.27-10.51-51.21-12.49-16.99-2-33.36-2.54-48.39-3.54-15.03-.95-28.88-2.45-40.68-4.95C18.97,10.01,5.85,3.51.53.53c2.98,5.32,9.48,18.44,13.2,37.21,2.49,11.8,3.99,25.65,4.94,40.68.99,15.03,1.54,31.4,3.54,48.39,1.97,16.95,5.64,34.73,12.49,51.21,5.65,13.76,13.56,25.97,22.24,35.87-3.76,2.65-7.45,5.45-10.99,8.56-12.1,10.46-22.61,23.73-30.19,38.43C.36,290.27-4.07,325.66,3.87,357.68c3.97,15.9,11.13,31.74,23.01,44.66,9.68,10.56,22.02,18.18,35.44,22.02-5.65,3.61-11.18,7.58-16.39,12.16-12.1,10.46-22.61,23.73-30.19,38.43-15.39,29.4-19.82,64.78-11.87,96.8,3.97,15.9,11.13,31.74,23.01,44.66,11.56,12.61,26.9,21.07,43.37,23.82-70.17,41.28-18.83,142.01-18.83,142.01,0,0-2.57-63.72,33.34-84.96,26.19-15.49,17.25-43.57,10.5-57.64.18-.04.35-.09.53-.14.11-.03.22-.04.33-.06,0,0,0-.01-.01-.02,23.7-5.81,41.3-27.13,41.3-52.61,0-29.95-24.28-54.23-54.23-54.23-17.93,0-33.79,8.74-43.66,22.16-6.41-20.55-6.2-45.41,2.33-67.95,4.57-12.34,11.44-23.72,20.32-33.54,8.82-9.91,19.59-18.08,30.92-24.78,3.79-2.21,7.66-4.15,11.55-5.98,19.26-8.31,32.76-27.43,32.76-49.74,0-29.95-24.28-54.23-54.23-54.23-17.93,0-33.79,8.74-43.66,22.16-6.41-20.55-6.2-45.41,2.33-67.95,4.57-12.34,11.44-23.72,20.32-33.54,8.82-9.91,19.59-18.08,30.92-24.79,22.87-13.33,47.88-20.02,69.83-23.4,8.92-1.38,17.32-2.29,25.12-2.94.64-7.8,1.56-16.2,2.94-25.12,3.39-21.95,10.08-46.96,23.4-69.83,6.7-11.33,14.87-22.1,24.79-30.92,9.83-8.88,21.2-15.75,33.54-20.32,22.54-8.53,47.41-8.74,67.95-2.33-13.42,9.87-22.16,25.72-22.16,43.66,0,29.95,24.28,54.23,54.23,54.23,22.31,0,41.43-13.49,49.74-32.76,1.83-3.89,3.77-7.76,5.98-11.55,6.7-11.33,14.87-22.1,24.78-30.92,9.83-8.88,21.2-15.75,33.54-20.32,22.54-8.53,47.41-8.74,67.95-2.33-13.42,9.87-22.16,25.72-22.16,43.66,0,29.95,24.28,54.23,54.23,54.23,25.49,0,46.81-17.61,52.61-41.3,0,0,.01,0,.02.01.03-.11.04-.22.06-.33.04-.18.1-.35.14-.54,14.07,6.76,42.15,15.69,57.64-10.5,21.24-35.91,84.96-33.34,84.96-33.34,0,0-100.73-51.34-142.01,18.83ZM182.07,162.08c-.24,7.02-.24,13.62-.11,19.88-6.26-.13-12.86-.13-19.88.11-13.11.47-27.66,1.93-42.78,5.24-1.34-.11-3.05-.3-5.22-.71-4.75-.9-11.68-2.78-19.52-7.48-7.89-4.57-16.47-11.72-23.76-21.66-7.54-10.2-13.97-23.37-19.23-37.85-5.31-14.47-9.59-30.05-14.13-44.85-4.51-14.81-9.41-28.72-14.79-40.18C16.09,20.21,8.9,10.11,4.18,4.18c5.93,4.72,16.02,11.91,30.39,18.46,11.46,5.38,25.36,10.28,40.18,14.79,14.8,4.53,30.39,8.82,44.85,14.13,14.48,5.26,27.65,11.69,37.85,19.23,9.94,7.29,17.09,15.87,21.66,23.76,4.7,7.84,6.57,14.77,7.48,19.52.41,2.17.6,3.88.71,5.22-3.31,15.13-4.77,29.67-5.24,42.78Z" fill="#010101"/></g></svg>