<?xml version="1.0" encoding="UTF-8"?><svg id="Layer_2" xmlns="http://www.w3.org/2000/svg" viewBox="0 0 782.24 782.24"><g id="Layer_1-2"><path d="M83.96,0H0v88.52c8.17-3.05,44.25-14.24,92.46,3.94C74.29,44.26,85.48,8.18,88.53,0h-4.57Z" fill="#010101"/><path d="M113.05,0c-7.76,15.56-23.1,56.76-2.46,110.58C56.77,89.95,15.57,105.3,0,113.05v39.35c42.8-40.86,90.93-39.05,119.98-32.42C113.35,90.94,111.54,42.81,152.4,0h-39.35Z" fill="#010101"/><path d="M0,372.11v49.33c6.59-6.19,10.73-14.94,10.73-24.67s-4.14-18.48-10.73-24.67Z" fill="#010101"/><path d="M16.01,651.63c.89-.58,1.69-1.27,2.49-1.97,4.85-4.23,7.98-10.37,7.98-17.29,0-4.66-1.41-8.99-3.8-12.62-1.44-2.19-3.28-4.07-5.36-5.65-3.87-2.95-8.64-4.77-13.87-4.77-1.18,0-2.31.18-3.44.35v45.39c1.13.17,2.26.35,3.44.35,4.64,0,8.95-1.41,12.57-3.78Z" fill="#010101"/><path d="M61.91,574.76v-28.7c-3.18,3.95-5.16,8.9-5.16,14.35s1.98,10.4,5.16,14.35Z" fill="#010101"/><path d="M52.12,706.25c-1.16,1.29-1.92,2.96-1.92,4.83,0,3.16,2.05,5.79,4.87,6.8.76.27,1.56.49,2.41.49,1.69,0,3.18-.67,4.42-1.64v-11.29c-1.24-.97-2.73-1.65-4.42-1.65-2.15,0-4.03.97-5.37,2.46Z" fill="#010101"/><path d="M28.74,481.98c-1.29,0-2.44.43-3.49,1.02-1.88,1.05-3.17,2.87-3.55,5.07-.07.41-.24.78-.24,1.2,0,.3.14.56.17.85.13,1.09.5,2.08,1.06,2.96,1.29,2.04,3.46,3.47,6.05,3.47,4.02,0,7.29-3.27,7.29-7.29s-3.27-7.29-7.29-7.29Z" fill="#010101"/><circle cx="122.23" cy="201.64" r="7.23" fill="#010101"/><path d="M152.02,247.92c4.94,0,8.94-4,8.94-8.94s-4-8.94-8.94-8.94-8.95,4-8.95,8.94,4,8.94,8.95,8.94Z" fill="#010101"/><path d="M134.46,292.26c0,5.71,4.63,10.33,10.33,10.33s10.33-4.63,10.33-10.33-4.63-10.34-10.33-10.34-10.33,4.63-10.33,10.34Z" fill="#010101"/><path d="M114.59,331.17c0-6.86-5.56-12.42-12.42-12.42s-12.42,5.56-12.42,12.42,5.56,12.42,12.42,12.42,12.42-5.56,12.42-12.42Z" fill="#010101"/><path d="M396.78,10.73c9.73,0,18.48-4.14,24.67-10.73h-49.33c6.18,6.59,14.94,10.73,24.67,10.73Z" fill="#010101"/><path d="M670.85,3.44c0,4.18-.69,8.2-1.93,11.97-.05.15-.11.28-.16.43-3.26,9.55-10.17,17.41-19.07,21.92-5.21,2.64-11.09,4.17-17.32,4.17-13.09,0-24.65-6.58-31.61-16.59,0,0,0,0,0,0-1.6-2.3-2.95-4.78-4.02-7.41-1.82-4.47-2.85-9.35-2.85-14.48,0-1.16.07-2.3.17-3.44h-153.75c-6.34,11.88-17.41,20.82-30.67,24.41-4.11,1.11-8.4,1.76-12.86,1.76-3.33,0-6.58-.34-9.73-.97-14.65-2.94-26.95-12.39-33.79-25.2h-52.1c33.36,15.74,37.43,61.91,37.43,61.91h41.37c-.45,7.31-1.28,14.68-2.89,21.93-2.96,15.07-8.52,29.77-16,43.18-7.72,13.28-17.54,25.45-29.34,34.84-11.61,9.57-25.45,16.43-39.72,20.69-28.6,8.65-59.98,4.69-81.97-10.19-11.06-7.47-20.14-17.54-26.5-28.79-6.49-11.12-10.32-23.29-11.3-34.96-2.53-23.54,7.6-44.11,21.68-56.15,6.92-5.99,14.64-9.7,21.81-11.37,6.98-1.61,14.15-1.11,20.2.37.87.25,1.73.56,2.59.86,11.49,4.39,17.05,17.3,13.71,28.91-4.45,15.32-23.72,21.31-37.99,22.79,8.96,9.39,18.47,19.03,30.76,23.16,15.01,5,32.49.43,43.92-10.5,11.43-10.93,16.86-27.49,15.44-43.24-1.48-15.75-9.39-30.58-20.82-41.57C264.95,4.03,237.22-3.45,211.83,1.49c-25.39,4.94-47.87,21.81-60.91,44.11-13.1,22.3-16.8,49.6-11.49,74.87,2.19,10.35,5.98,20.37,10.88,29.84-9.47-4.9-19.49-8.68-29.84-10.88-25.27-5.31-52.57-1.61-74.87,11.49-22.3,13.03-39.16,35.52-44.11,60.91-4.94,25.39,2.53,53.13,20.39,71.72,11,11.43,25.82,19.33,41.57,20.82,15.75,1.42,32.31-4.02,43.24-15.44,10.93-11.43,15.51-28.91,10.5-43.92-4.14-12.29-13.78-21.81-23.16-30.76-1.48,14.27-7.47,33.54-22.79,37.99-11.61,3.34-24.52-2.22-28.91-13.71-.31-.86-.62-1.73-.86-2.59-1.48-6.05-1.98-13.22-.37-20.2,1.67-7.17,5.37-14.89,11.37-21.81,12.05-14.08,32.62-24.22,56.15-21.68,11.68.99,23.84,4.82,34.96,11.31,11.24,6.36,21.31,15.44,28.79,26.5,14.89,21.99,18.84,53.37,10.19,81.97-4.26,14.27-11.12,28.11-20.69,39.72-9.39,11.8-21.56,21.62-34.84,29.34-13.4,7.47-28.11,13.03-43.18,16-7.25,1.6-14.61,2.44-21.93,2.89v-41.37s-46.16-4.08-61.91-37.43v52.1c12.8,6.84,22.25,19.15,25.2,33.79.63,3.15.97,6.4.97,9.73,0,4.45-.65,8.75-1.76,12.86-3.59,13.26-12.54,24.33-24.41,30.67v153.75c1.13-.1,2.28-.17,3.44-.17,5.12,0,10,1.03,14.48,2.85,2.63,1.07,5.11,2.42,7.41,4.02,0,0,0,0,0,0,10.01,6.96,16.59,18.52,16.59,31.61,0,6.23-1.52,12.11-4.17,17.32-4.51,8.9-12.37,15.81-21.92,19.07-.14.05-.28.11-.43.16-3.77,1.24-7.79,1.93-11.97,1.93-1.16,0-2.3-.07-3.44-.17v111.57c15.74-33.36,61.91-37.43,61.91-37.43v-11.44c-.92.18-1.88.22-2.83.29-.53.04-1.05.16-1.59.16-12.53,0-22.73-10.2-22.73-22.73,0-9.18,5.5-17.06,13.35-20.65,2.87-1.31,6.03-2.08,9.38-2.08,1.51,0,2.99.16,4.42.45v-94.33c-12.23-6.45-20.6-19.28-20.6-34.05s8.37-27.6,20.6-34.05v-129.61c8.34-.13,16.74-.68,25.08-2.02,16.99-2.53,33.79-7.91,49.67-15.75,15.69-8.09,30.45-18.78,42.56-32.43,6.12-6.79,11.49-14.21,16-22.11,4.69-7.78,8.34-16.18,11.37-24.71,11.1-31.33,10.37-67.47-4.55-97.7,30.22,14.92,66.37,15.65,97.7,4.55,8.52-3.03,16.93-6.67,24.71-11.37,7.91-4.51,15.32-9.88,22.11-16,13.65-12.11,24.34-26.87,32.43-42.56,7.85-15.88,13.22-32.68,15.75-49.67,1.34-8.34,1.89-16.74,2.02-25.08h129.61c6.45-12.23,19.28-20.6,34.05-20.6s27.6,8.37,34.05,20.6h94.33c-.28-1.43-.45-2.91-.45-4.42,0-3.35.77-6.51,2.08-9.38,3.59-7.85,11.47-13.35,20.65-13.35,12.53,0,22.73,10.2,22.73,22.73,0,.54-.12,1.05-.16,1.59-.07.95-.1,1.91-.29,2.83h11.44s4.08-46.16,37.43-61.91h-111.57c.1,1.13.17,2.28.17,3.44ZM37.99,509.99c-2.83,1.27-5.95,2.02-9.25,2.02-2.76,0-5.38-.57-7.83-1.47-.83-.31-1.61-.67-2.39-1.06-7.39-3.76-12.52-11.35-12.52-20.2,0-10.32,6.96-18.96,16.4-21.72,2.02-.59,4.12-1.01,6.33-1.01.23,0,.44.06.67.07,5.3.16,10.1,2.16,13.89,5.36,4.95,4.17,8.17,10.34,8.17,17.31,0,9.23-5.55,17.16-13.48,20.72ZM509.99,37.99c-3.56,7.92-11.48,13.48-20.72,13.48-6.97,0-13.14-3.22-17.31-8.17-3.2-3.79-5.2-8.59-5.36-13.89,0-.23-.07-.44-.07-.67,0-2.21.42-4.31,1.01-6.33,2.76-9.44,11.4-16.4,21.72-16.4,8.84,0,16.44,5.13,20.19,12.52.4.78.76,1.56,1.06,2.39.91,2.45,1.47,5.07,1.47,7.83,0,3.3-.74,6.42-2.01,9.25Z" fill="#010101"/><path d="M546.07,61.91h28.7c-3.95-3.18-8.9-5.16-14.35-5.16s-10.4,1.98-14.35,5.16Z" fill="#010101"/><path d="M711.08,50.2c-1.87,0-3.54.76-4.83,1.92-1.48,1.33-2.46,3.22-2.46,5.37,0,1.69.67,3.18,1.64,4.42h11.29c.97-1.24,1.64-2.73,1.64-4.42,0-.86-.22-1.65-.49-2.41-1.01-2.82-3.64-4.87-6.8-4.87Z" fill="#010101"/><path d="M493.09,22.68c-.89-.56-1.87-.93-2.96-1.06-.29-.04-.55-.17-.85-.17-.43,0-.8.17-1.2.24-2.2.38-4.02,1.67-5.07,3.55-.59,1.05-1.02,2.2-1.02,3.49,0,4.02,3.27,7.29,7.29,7.29s7.29-3.27,7.29-7.29c0-2.59-1.43-4.76-3.47-6.05Z" fill="#010101"/><path d="M609.32,3.44c0,5.23,1.82,10,4.77,13.87,1.59,2.08,3.46,3.92,5.65,5.36,3.63,2.39,7.96,3.8,12.62,3.8,6.92,0,13.07-3.13,17.29-7.98.7-.8,1.39-1.6,1.97-2.49,2.37-3.62,3.78-7.93,3.78-12.57,0-1.18-.18-2.31-.35-3.44h-45.39c-.17,1.13-.35,2.26-.35,3.44Z" fill="#010101"/><path d="M194.41,122.23c0,3.99,3.24,7.23,7.23,7.23s7.23-3.24,7.23-7.23-3.24-7.23-7.23-7.23-7.23,3.24-7.23,7.23Z" fill="#010101"/><path d="M230.03,152.02c0,4.94,4,8.95,8.94,8.95s8.94-4,8.94-8.95-4-8.94-8.94-8.94-8.94,4-8.94,8.94Z" fill="#010101"/><path d="M281.92,144.79c0,5.71,4.63,10.33,10.33,10.33s10.33-4.63,10.33-10.33-4.63-10.34-10.33-10.34-10.33,4.63-10.33,10.34Z" fill="#010101"/><path d="M343.59,102.17c0-6.86-5.56-12.42-12.42-12.42s-12.42,5.56-12.42,12.42,5.56,12.42,12.42,12.42,12.42-5.56,12.42-12.42Z" fill="#010101"/></g></svg>