<?xml version="1.0" encoding="UTF-8"?><svg id="Layer_2" xmlns="http://www.w3.org/2000/svg" viewBox="0 0 782.24 782.24"><g id="Layer_1-2"><path d="M143.01,143.01c-13.23-20.29-32.6-42.75-60.14-60.14,17.39,27.55,39.85,46.91,60.14,60.14Z" fill="#010101"/><path d="M90.01,395.42c1.48,1.64,3.02,3.23,4.64,4.76,3.5,3.26,7.31,6.18,11.43,8.75,8.26,5.19,17.55,8.42,27.08,9.92,9.37,1.34,18.83.88,27.69-1.58,8.85-2.4,17.05-6.86,23.61-12.64,6.59-5.76,11.77-12.85,15-20.72,1.62-3.95,2.74-7.99,3.32-12.24.56-4.19.55-8.31.07-12.28-.98-7.93-3.71-15.34-8.03-21.58-2.15-3.12-4.67-5.95-7.47-8.39-2.8-2.4-6.05-4.48-9.26-6.01-13.02-6-26.38-4.79-36.63.41-5.11,2.67-9.37,6.43-12.38,10.71-2.98,4.22-4.61,8.57-5.45,12.58-.84,4.02-.88,7.74-.39,11.02.17,1.64.63,3.18.99,4.59.52,1.42.93,2.72,1.58,3.9,2.39,4.73,5.57,7.36,8.11,8.32,2.62.94,4.49.41,5.78-.92,1.33-1.36,1.86-3.18,2.11-5.13.28-2,.39-4.24.74-6.81.04-.62.26-1.34.32-2,.21-.71.27-1.41.53-2.15.37-1.46.96-3.02,1.75-4.5.78-1.48,1.79-2.89,2.96-3.98,1.11-1.02,2.56-1.98,4.4-2.71,1.86-.67,4.12-1.14,6.63-1.08,1.25.03,2.54.2,3.83.47,1.27.33,2.55.73,3.72,1.31,1.18.61,2.18,1.24,3.31,2.17,1.07.95,2.09,2.06,3.03,3.36,1.9,2.59,3.32,6.07,3.94,9.85.61,3.85.36,7.7-1.11,11.9-1.44,4.15-4.09,8.4-7.8,12.06-3.71,3.69-8.35,6.67-13.9,8.62-5.52,1.97-11.89,2.8-18.53,2.36-6.73-.56-13.6-2.35-19.75-5.61-6.24-3.21-11.97-7.86-16.82-13.43-4.9-5.55-8.82-12.1-11.82-19.04-2.92-6.99-4.8-14.4-5.57-21.94-1.54-15.09,1.24-30.54,7.29-43.84,4.55-10.09,10.91-18.96,18.3-26.12-4.34,9.99-8.7,28.44,13.65,35.71,0,0-17.12-32.2,11.56-52.17,5.23-2.21,10.47-3.75,15.5-4.96,10.91-2.32,20.9-2.51,29.05-1.66,8.17.85,14.5,2.66,18.77,4.03,2.12.72,3.71,1.41,4.81,1.81,1.09.42,1.66.64,1.66.64,0,0-.55-.26-1.6-.76-1.06-.48-2.59-1.29-4.66-2.17-4.16-1.69-10.37-4-18.62-5.5-8.22-1.5-18.47-2.11-30.01-.56-5.73.92-11.82,2.17-17.97,4.37-6.14,2.19-12.41,5.09-18.51,8.89-12.12,7.72-23.23,19.24-31.08,33.6-7.85,14.32-12.48,31.46-12.04,49.3,0,0,0,.02,0,.03l-.8-1.09s.43,1.83.99,4.98c.29,4.24.86,8.5,1.75,12.71,2.33,23.35,1.45,63.12-28.34,76.94,0,0,40.55,19.87,48.65-36.49Z" fill="#010101"/><path d="M116.9,438.36c-14.91,48.07,16.72,29.37,16.72,29.37,37.78,21.72,50.56-38.22,50.56-38.22-23.66,28.31-67.28,8.84-67.28,8.84Z" fill="#010101"/><path d="M136.4,674.62c6.51-2.8,12.38-6.94,17.39-12.04,9.99-10.17,16.39-24.07,17.74-38.84.66-7.3.16-14.45-1.09-21.17-1.25-6.73-3.31-13-5.72-18.85-4.84-11.71-11.36-21.74-17.77-30.39-6.44-8.7-12.85-16.27-18.54-23.37-5.72-7.09-10.74-13.7-14.8-20.03-4.09-6.34-7.23-12.41-9.55-17.97-2.31-5.56-3.72-10.62-4.58-14.85-.89-4.24-1.09-7.64-1.25-9.97-.05-2.33-.08-3.57-.08-3.57,0,0-.36,1.19-1.03,3.45-.54,2.29-1.38,5.74-1.69,10.31-.35,4.56-.29,10.26.7,16.78,1,6.51,2.88,13.86,5.86,21.62,2.97,7.78,7.03,15.91,11.7,24.17,4.66,8.28,9.93,16.72,14.93,25.45,5.02,8.75,9.65,17.72,12.88,27.25,3.28,9.48,5.02,19.34,4.18,28.72-.82,9.21-4.54,17.89-10.05,24.29-2.72,3.19-5.94,5.84-9.3,7.69-3.41,1.91-7.24,3.12-11.08,3.71-7.71,1.1-15.33-.59-20.81-4.54-5.69-4-9.7-10.37-11.33-16.51-.82-3.09-1.07-6.17-.75-9.04.21-1.43.4-2.85.81-4.06.4-1.26.95-2.47,1.61-3.58,1.31-2.23,3.02-4.1,4.86-5.44,1.86-1.37,3.75-2.18,5.71-2.55,3.9-.78,7.21.14,9.19,1.13.99.52,1.72,1.03,2.18,1.41.46.39.69.59.69.59,0,0-.16-.27-.48-.78-.33-.52-.88-1.24-1.74-2.12-1.74-1.66-5.01-3.85-10.01-4.28-5-.52-11.59,1.6-16.81,6.89-1.31,1.32-2.54,2.84-3.62,4.58-1.11,1.77-1.9,3.68-2.66,5.66-1.42,4.01-2.1,8.57-1.87,13.29.22,4.73,1.3,9.62,3.32,14.41,2.02,4.78,4.94,9.51,9.08,13.67,8.3,8.54,20.98,13.42,34.06,13.15,6.55-.17,13.28-1.47,19.73-4.27Z" fill="#010101"/><path d="M100.24,619.55c-4.72,0-8.55,3.83-8.55,8.54s3.83,8.55,8.55,8.55,8.55-3.83,8.55-8.55-3.83-8.54-8.55-8.54Z" fill="#010101"/><path d="M184.78,502.41s20.73-17.12,12.46-54.71c0,0,.2,54.37-68.36,46.37,0,0,67.16,46.17,60.41,124.39,0,0,44.38-49.13-4.51-116.05Z" fill="#010101"/><path d="M138.37,293.19s43.09-16.87,69.26,16.88v-34.95c-7.58-2.99-50.44-17.94-69.26,18.07Z" fill="#010101"/><path d="M77.44,485.98c1.35-13.78,5.45-29.05,13.96-45.57-17.99,20.84-42.65,10.6-42.65,10.6,4.17,24.68-7.39,46.47-7.39,46.47,13.91-14.64,31.41-12.74,36.09-11.49Z" fill="#010101"/><path d="M79.71,183.05s-26.54-13.24-38.35-43.38v159.81s2.82-86.2,38.35-116.43Z" fill="#010101"/><path d="M41.35,402.32s14.42-30.61,0-62.96v62.96Z" fill="#010101"/><path d="M187.65,629.9c1.4,50.27-43.18,66.26-43.18,66.26h60.57c10.88-28.18-17.39-66.26-17.39-66.26Z" fill="#010101"/><path d="M53.6,612.96c13.49-44.96,57.92-30.55,59.03-30.18l-.03-.03c-1-.95-17.12-16.62-25.5-37.5-4.01-9.98-8.78-23.75-9.94-40.63,0,0-36.03,21.38-19.24,61.19,0,0-33.78,21.62-4.31,47.15Z" fill="#010101"/><path d="M53.62,696.16h35.98c-35.18-10.59-37.88-41.58-37.88-41.58-24.34,17.29,1.9,41.58,1.9,41.58Z" fill="#010101"/><path d="M431.91,41.35c-9.87,21.28-32.98,27.8-53.9,28.95-9.58.52-19.17-.23-28.66-1.6-2.37-.34-4.74-.59-7.1-.76-1.3-.09-2.6-.16-3.89-.19,0,0-.02,0-.03,0-17.85-.44-34.99,4.19-49.3,12.04-14.36,7.85-25.88,18.97-33.6,31.08-3.8,6.1-6.69,12.36-8.89,18.51-2.2,6.15-3.45,12.24-4.37,17.97-1.54,11.54-.93,21.79.56,30.01,1.5,8.24,3.81,14.46,5.5,18.62.88,2.07,1.69,3.6,2.17,4.66.5,1.05.76,1.59.76,1.59,0,0-.22-.57-.64-1.66-.4-1.1-1.09-2.68-1.81-4.81-1.37-4.26-3.18-10.59-4.03-18.77-.85-8.15-.66-18.14,1.66-29.05.57-2.36,1.21-4.76,1.96-7.19,2.38-7.72,7.07-14.64,13.8-19.11,19.01-12.63,41.37-.74,41.37-.74-7.27-22.35-25.72-17.99-35.71-13.65,7.15-7.39,16.02-13.75,26.12-18.3,13.3-6.06,28.75-8.84,43.84-7.29,7.54.78,14.95,2.65,21.94,5.57,6.94,3,13.5,6.92,19.04,11.82,5.57,4.85,10.22,10.59,13.43,16.82,3.26,6.15,5.05,13.03,5.61,19.75.44,6.64-.38,13.01-2.36,18.53-1.95,5.55-4.94,10.19-8.62,13.9-3.66,3.71-7.91,6.36-12.06,7.8-4.2,1.48-8.05,1.72-11.9,1.11-3.79-.62-7.26-2.04-9.85-3.94-1.3-.94-2.42-1.97-3.36-3.03-.93-1.12-1.56-2.13-2.17-3.31-.58-1.18-.97-2.45-1.31-3.72-.26-1.29-.44-2.58-.47-3.83-.06-2.51.42-4.76,1.08-6.62.73-1.84,1.69-3.29,2.71-4.4,1.09-1.17,2.5-2.18,3.98-2.96,1.48-.79,3.04-1.38,4.5-1.75.74-.26,1.44-.32,2.15-.53.67-.06,1.38-.28,2-.32,2.58-.35,4.81-.46,6.81-.74,1.96-.26,3.77-.79,5.13-2.11,1.33-1.29,1.86-3.17.92-5.78-.96-2.54-3.59-5.72-8.32-8.1-1.17-.65-2.48-1.06-3.9-1.58-1.41-.36-2.96-.83-4.59-.99-3.28-.49-7-.45-11.02.39-4.01.84-8.36,2.47-12.58,5.45-4.28,3.02-8.04,7.28-10.71,12.38-5.2,10.25-6.42,23.6-.41,36.63,1.53,3.21,3.61,6.46,6.01,9.26,2.45,2.8,5.27,5.32,8.39,7.47,6.24,4.32,13.65,7.05,21.58,8.03,3.97.48,8.1.49,12.28-.07,4.24-.58,8.29-1.7,12.24-3.32,7.87-3.24,14.96-8.42,20.72-15,5.78-6.56,10.23-14.76,12.64-23.61,2.46-8.85,2.92-18.32,1.58-27.69-1.5-9.53-4.73-18.82-9.92-27.08-2.57-4.12-5.5-7.93-8.75-11.43-1.53-1.62-3.12-3.16-4.76-4.64,56.36-8.1,36.49-48.65,36.49-48.65Z" fill="#010101"/><path d="M467.74,133.62s18.7-31.63-29.37-16.72c0,0,19.46,43.62-8.84,67.28,0,0,59.94-12.78,38.22-50.56Z" fill="#010101"/><path d="M662.58,153.79c5.1-5.01,9.24-10.88,12.04-17.39,2.79-6.46,4.1-13.18,4.27-19.73.27-13.08-4.61-25.76-13.15-34.06-4.15-4.14-8.88-7.06-13.67-9.08-4.79-2.02-9.69-3.1-14.42-3.32-4.72-.22-9.28.45-13.29,1.87-1.98.76-3.89,1.54-5.66,2.66-1.74,1.07-3.26,2.31-4.59,3.62-5.29,5.22-7.41,11.81-6.89,16.81.43,4.99,2.62,8.27,4.28,10.01.87.87,1.6,1.41,2.12,1.74.52.31.78.48.78.48,0,0-.2-.23-.59-.69-.38-.46-.88-1.19-1.41-2.18-.99-1.98-1.91-5.29-1.13-9.19.38-1.95,1.18-3.85,2.55-5.71,1.34-1.85,3.21-3.55,5.44-4.87,1.11-.65,2.32-1.21,3.58-1.61,1.22-.41,2.63-.6,4.06-.81,2.87-.31,5.95-.07,9.04.75,6.13,1.63,12.51,5.64,16.51,11.33,3.95,5.49,5.64,13.1,4.54,20.81-.59,3.84-1.8,7.67-3.71,11.08-1.85,3.36-4.5,6.58-7.69,9.3-6.4,5.51-15.09,9.23-24.29,10.05-9.38.85-19.24-.89-28.72-4.18-9.53-3.24-18.5-7.86-27.25-12.88-8.73-5-17.17-10.27-25.45-14.93-8.26-4.68-16.38-8.73-24.16-11.7-7.76-2.98-15.1-4.86-21.62-5.86-6.53-.99-12.22-1.05-16.78-.7-4.57.31-8.02,1.15-10.31,1.69-2.26.67-3.45,1.03-3.45,1.03,0,0,1.23.03,3.57.08,2.33.17,5.73.36,9.97,1.25,4.23.85,9.29,2.27,14.85,4.58,5.56,2.32,11.63,5.47,17.97,9.55,6.33,4.06,12.95,9.08,20.03,14.8,7.1,5.7,14.68,12.1,23.37,18.54,8.65,6.41,18.68,12.94,30.39,17.77,5.86,2.41,12.12,4.47,18.85,5.72,6.72,1.25,13.87,1.76,21.17,1.09,14.77-1.35,28.67-7.75,38.84-17.74Z" fill="#010101"/><path d="M628.1,108.79c4.72,0,8.54-3.83,8.54-8.54s-3.83-8.55-8.54-8.55-8.55,3.83-8.55,8.55,3.83,8.54,8.55,8.54Z" fill="#010101"/><path d="M502.41,184.78c66.92,48.89,116.05,4.51,116.05,4.51-78.22,6.75-124.39-60.41-124.39-60.41,8,68.56-46.37,68.36-46.37,68.36,37.6,8.27,54.71-12.46,54.71-12.46Z" fill="#010101"/><path d="M275.12,207.63h34.95c-33.75-26.18-16.88-69.26-16.88-69.26-36.01,18.82-21.06,61.68-18.07,69.26Z" fill="#010101"/><path d="M440.4,91.4c16.52-8.51,31.8-12.61,45.57-13.96-1.25-4.68-3.15-22.17,11.49-36.09,0,0-21.79,11.57-46.47,7.39,0,0,10.24,24.66-10.6,42.65Z" fill="#010101"/><path d="M612.96,53.6c-25.54-29.47-47.15,4.31-47.15,4.31-39.81-16.79-61.19,19.24-61.19,19.24,16.87,1.17,30.65,5.93,40.63,9.94,20.87,8.38,36.55,24.5,37.5,25.5l.03.03c-.37-1.12-14.78-45.54,30.18-59.03Z" fill="#010101"/><path d="M16.52,782.24c9.12,0,16.52-7.4,16.52-16.52,0-7.11-4.5-13.16-10.81-15.49V32.37c10.03,102.51,80.84,139.56,99.93,147.74-38.18,22.38-42.47,65.49-42.47,65.49,51.83-46.24,107.86-36.52,145.26-20.64-15.88-37.4-25.59-93.42,20.64-145.25,0,0-43.11,4.28-65.49,42.47-8.18-19.09-45.24-89.9-147.74-99.93h717.86c2.33,6.3,8.37,10.8,15.48,10.8,9.12,0,16.52-7.4,16.52-16.52s-7.4-16.52-16.52-16.52c-7.11,0-13.16,4.5-15.48,10.8H10.81v739.43c-6.3,2.33-10.81,8.37-10.81,15.49,0,9.12,7.4,16.52,16.52,16.52ZM169.07,151.79l.2-.39c-.04.19-.08.37-.12.56,4.64,9.17,7.85,17.03,9.9,22.59,1.28-13.98,6.08-37.3,23.39-51.67,0,0-16.09,35.62-9.29,70.27-34.65-6.8-70.27,9.29-70.27,9.29,14.38-17.3,37.69-22.1,51.67-23.38-5.57-2.05-13.43-5.25-22.59-9.9-.19.04-.37.08-.56.12l.39-.2c-33.59-17.04-84.6-53.33-105.05-122.32,68.99,20.45,105.28,71.46,122.32,105.04Z" fill="#010101"/><path d="M765.72,215.5c-7.11,0-13.16,4.5-15.48,10.8H226.3v523.93c-6.3,2.33-10.8,8.37-10.8,15.49,0,9.12,7.4,16.52,16.52,16.52s16.52-7.4,16.52-16.52c0-7.11-4.5-13.16-10.8-15.49V237.74h512.5c2.33,6.3,8.37,10.81,15.48,10.81,9.12,0,16.52-7.4,16.52-16.52s-7.4-16.52-16.52-16.52Z" fill="#010101"/><path d="M139.67,41.35c30.13,11.82,43.38,38.35,43.38,38.35,30.23-35.53,116.43-38.35,116.43-38.35h-159.81Z" fill="#010101"/><path d="M402.32,41.35h-62.96c32.36,14.42,62.96,0,62.96,0Z" fill="#010101"/><path d="M696.16,205.03v-60.57s-15.99,44.57-66.26,43.18c0,0,38.08,28.27,66.26,17.39Z" fill="#010101"/><path d="M696.16,53.62s-24.29-26.24-41.58-1.9c0,0,30.98,2.7,41.58,37.88v-35.98Z" fill="#010101"/></g></svg>