<?xml version="1.0" encoding="UTF-8"?><svg id="Layer_2" xmlns="http://www.w3.org/2000/svg" viewBox="0 0 782.24 782.24"><g id="Layer_1-2"><path d="M99.12,452.51c4.62-1.32,9.1-3.07,13.31-5.31,4.24-2.24,8.11-4.99,11.61-8.07,6.99-6.16,12.51-13.78,15.88-22.31,1.68-4.28,2.81-8.67,3.32-13.28.49-4.55.33-9.02-.36-13.31-1.39-8.57-4.92-16.48-10.16-22.92-2.62-3.21-5.66-6.04-9-8.35-3.44-2.35-7.09-4.03-10.73-5.18-14.56-4.52-29.19-.79-38.34,7.55-.56.53-1.11,1.05-1.65,1.57-.51.58-1.01,1.16-1.51,1.73-1.02,1.12-1.77,2.37-2.57,3.55-.74,1.21-1.36,2.43-1.94,3.63-.49,1.23-1.04,2.41-1.37,3.62-1.5,4.78-1.76,9.28-1.35,13.18.4,3.91,1.49,7.26,2.91,9.9.63,1.34,1.5,2.46,2.2,3.46.8.97,1.61,1.78,2.33,2.45.81.63,1.55,1.13,2.21,1.51.67.38,1.35.56,1.89.69,1.12.23,1.9.03,2.43-.5.52-.53.74-1.35.75-2.36.02-.51-.07-1.03-.12-1.66-.04-.63-.12-1.3-.25-1.99-.05-.75-.15-1.51-.23-2.33,0-.87-.15-1.7-.09-2.67-.03-1.87.17-3.99.71-6.24,1.02-4.44,3.67-9.6,8.1-12.08.52-.39,1.21-.61,1.78-.96.68-.22,1.28-.56,2.01-.73,1.37-.47,2.91-.7,4.5-.83,1.59-.15,3.28-.02,4.95.23,1.68.24,3.36.74,4.93,1.43,1.57.68,3.05,1.54,4.31,2.58,1.33,1.12,2.57,2.45,3.66,4,2.19,3.09,3.79,7.12,4.3,11.45.52,4.39-.03,8.65-1.89,13.09-1.84,4.39-4.94,8.7-9.01,12.26-2.03,1.77-4.27,3.39-6.71,4.69-2.45,1.32-5.11,2.38-7.9,3.24-2.82.8-5.79,1.32-8.86,1.61-3.07.25-6.24.16-9.42-.16-6.36-.73-12.84-2.61-18.68-5.77-5.93-3.11-11.43-7.65-16.24-13.05-9.36-10.74-15.39-24.55-17.28-38.41-1-6.96-1.07-14.01-.34-20.88.24-1.71.37-3.44.69-5.12.33-1.69.65-3.37.98-5.04.43-1.65.87-3.29,1.29-4.93.44-1.63,1.05-3.2,1.55-4.8,2.23-6.32,5.1-12.26,8.45-17.72,3.41-5.43,7.35-10.29,11.57-14.64,4.21-4.36,8.93-7.91,13.66-11.11,2.44-1.47,4.8-3.01,7.3-4.2,2.42-1.34,4.93-2.36,7.37-3.42,9.84-4.06,19.53-5.92,28.11-6.64,8.61-.7,16.15-.11,22.26.78,6.08,1.07,10.77,2.33,13.89,3.38,3.12,1.09,4.76,1.66,4.76,1.66,0,0-1.54-.81-4.47-2.35-2.96-1.5-7.47-3.44-13.53-5.39-6.1-1.77-13.79-3.43-22.94-3.85-9.12-.4-19.72.3-31.02,3.48-2.8.85-5.71,1.66-8.56,2.84-2.92,1.02-5.76,2.41-8.69,3.79-1.47.68-2.86,1.56-4.32,2.35-.72.41-1.45.82-2.18,1.23-.73.42-1.41.91-2.12,1.37-1.41.95-2.85,1.87-4.26,2.88-1.37,1.07-2.74,2.15-4.13,3.23-5.41,4.52-10.6,9.74-15.2,15.73-4.55,6.02-8.6,12.71-11.92,20-3.35,7.27-5.89,15.17-7.45,23.48-1.57,8.31-2.18,17.05-1.54,25.95,1.21,17.84,7.62,36.11,19.65,51.5,6.2,7.76,13.66,14.58,22.32,19.61,8.65,5.12,18.14,8.25,27.73,9.62,4.81.63,9.64.87,14.45.59,4.81-.32,9.57-1.08,14.2-2.33Z" fill="#010101"/><path d="M2.01,12.56c2.17,13.32,6.52,28.5,13.43,43.89.43.96.86,1.93,1.29,2.9.48.95.96,1.9,1.44,2.86.97,1.91,1.95,3.84,2.93,5.78,1.09,1.88,2.18,3.78,3.28,5.68l1.67,2.86,1.82,2.79c1.22,1.86,2.42,3.75,3.69,5.6,1.33,1.81,2.67,3.62,4.01,5.44,1.3,1.85,2.77,3.58,4.22,5.33,1.47,1.73,2.86,3.54,4.41,5.22,3.11,3.33,6.17,6.75,9.54,9.81,3.24,3.23,6.76,6.11,10.22,9.04,7.08,5.62,14.37,10.86,21.93,15.17,3.7,2.3,7.54,4.19,11.28,6.14,1.85,1.02,3.78,1.79,5.65,2.66,1.88.84,3.73,1.71,5.59,2.49,7.48,3,14.73,5.58,21.64,7.44,11.13,3.07,21.16,4.78,29.3,5.66-.88-8.14-2.59-18.17-5.66-29.3-1.86-6.91-4.43-14.16-7.44-21.64-.78-1.86-1.65-3.71-2.49-5.59-.87-1.87-1.65-3.8-2.66-5.65-1.95-3.73-3.84-7.57-6.14-11.28-4.31-7.55-9.55-14.84-15.17-21.93-2.93-3.46-5.81-6.98-9.04-10.22-3.07-3.38-6.49-6.43-9.81-9.54-1.67-1.55-3.48-2.94-5.22-4.41-1.74-1.46-3.48-2.92-5.33-4.22-1.82-1.34-3.63-2.68-5.44-4.01-1.85-1.27-3.74-2.47-5.6-3.69l-2.79-1.82-2.86-1.67c-1.9-1.1-3.8-2.19-5.68-3.28-1.94-.98-3.86-1.96-5.78-2.93-.96-.48-1.91-.96-2.85-1.44-.97-.43-1.94-.86-2.9-1.29C41.07,8.53,25.89,4.18,12.56,2.01c-3.35-.46-6.54-.99-9.61-1.34-.86-.08-1.68-.15-2.52-.22.07.84.15,1.66.22,2.52.36,3.06.88,6.26,1.34,9.61ZM104.83,104.83c-7.77-15.19-17.48-37.51-18.82-56.49.34.35.69.69,1.03,1.04,1.46,1.51,3,2.94,4.4,4.51,2.77,3.16,5.62,6.22,8.1,9.58,2.65,3.21,4.95,6.68,7.29,10.04,4.45,6.91,8.53,13.89,11.72,21.03,1.74,3.49,3.09,7.1,4.5,10.58.75,1.72,1.26,3.52,1.88,5.25.58,1.74,1.2,3.45,1.73,5.16,1.51,5.17,2.82,10.17,3.83,14.97-4.8-1-9.8-2.31-14.97-3.83-1.71-.53-3.41-1.15-5.16-1.73-1.73-.62-3.53-1.13-5.25-1.88-3.48-1.42-7.09-2.76-10.58-4.5-7.14-3.19-14.13-7.27-21.03-11.72-3.37-2.34-6.83-4.64-10.04-7.29-3.35-2.49-6.42-5.33-9.58-8.1-1.57-1.39-3-2.93-4.51-4.4-.35-.34-.69-.69-1.04-1.03,18.98,1.35,41.31,11.05,56.49,18.82ZM11.67,6.15c12.74,3.35,26.95,8.97,40.89,16.93.87.49,1.75.99,2.63,1.48.85.54,1.71,1.09,2.57,1.63,1.71,1.09,3.44,2.18,5.18,3.29,1.67,1.19,3.35,2.4,5.04,3.6l2.53,1.81,2.44,1.96c.98.79,1.97,1.58,2.95,2.37-3.7,7.26-5.92,17.98-3.12,33.55-15.57-2.8-26.29-.58-33.55,3.12-.79-.99-1.58-1.97-2.37-2.95l-1.96-2.44-1.81-2.53c-1.21-1.69-2.41-3.37-3.6-5.04-1.1-1.74-2.2-3.46-3.29-5.18-.55-.86-1.09-1.72-1.63-2.57-.5-.88-.99-1.76-1.48-2.63C15.12,38.61,9.49,24.4,6.15,11.67c-.59-2.5-1.19-4.91-1.74-7.26,2.35.55,4.76,1.15,7.26,1.74Z" fill="#010101"/><path d="M54.96,54.96c-.74-7.28,1.38-12.28,1.38-12.28-8.32-9.45-23.3-15.79-32.73-19.07,3.28,9.43,9.62,24.41,19.07,32.73,0,0,5-2.12,12.28-1.38Z" fill="#010101"/><path d="M68.47,187.82c-28.9,4.02-63.91,16.56-68.16,53.36,0,0,40.82-44.32,145.83-19.55v-26.6C22.5,157.61.31,56.34.31,56.34c6.08,67.35,36.6,107.6,68.16,131.49Z" fill="#010101"/><path d="M.32,128.22v78.11c3.88-22.57,26.21-30.36,26.21-30.36C13.43,165.37.32,128.22.32,128.22Z" fill="#010101"/><path d="M66.16,242.57C26.53,241.83.32,264.54.32,264.54v33.21c13.74-42.25,65.84-55.18,65.84-55.18Z" fill="#010101"/><path d="M67.01,320.95c0,5.47,4.44,9.91,9.91,9.91s9.91-4.44,9.91-9.91-4.44-9.91-9.91-9.91-9.91,4.44-9.91,9.91Z" fill="#010101"/><circle cx="49.29" cy="351.45" r="7.35" fill="#010101"/><path d="M43.78,389.8c0,2.74,2.22,4.96,4.97,4.96s4.97-2.22,4.97-4.96-2.22-4.97-4.97-4.97-4.97,2.22-4.97,4.97Z" fill="#010101"/><circle cx="126.43" cy="318.2" r="14.86" fill="#010101"/><path d="M3.14,729.54c.47,1.92,1.15,3.8,1.75,5.69.72,1.88,1.4,3.79,2.24,5.61,3.29,7.3,7.54,13.97,12.77,19.72,5.2,5.75,11.22,10.73,18.03,14.4,6.77,3.67,14.23,6.24,21.85,6.97,7.61.83,15.12,0,21.95-1.97,6.84-1.97,13.04-5.04,18.51-8.75,5.47-3.72,10.26-8.05,14.28-12.83,4.03-4.77,7.36-9.94,9.92-15.35,2.55-5.39,4.32-10.79,5.54-16.18,2.33-10.78,2.49-21.17,1.37-30.64-1.06-9.5-3.37-18.13-6.11-25.9-5.66-15.5-12.91-27.41-19.05-36.82-6.2-9.39-11.46-16.3-14.97-21.01-3.56-4.68-5.44-7.13-5.44-7.13,0,0,1.48,2.71,4.29,7.87,2.78,5.17,6.99,12.76,11.8,22.72,4.76,9.95,10.23,22.38,13.73,37.22,1.66,7.41,2.84,15.44,2.85,23.86.08,8.41-1.06,17.19-3.81,25.68-1.4,4.21-3.28,8.4-5.58,12.23-2.29,3.81-5.12,7.43-8.42,10.68-6.59,6.48-15.19,11.46-24.22,13.27-9.06,1.85-18.14.23-26.16-5.01-8-5.13-14.73-13.67-18.34-23.34-.49-1.2-.81-2.44-1.23-3.67-.31-1.3-.73-2.56-.95-3.9-.61-2.62-.91-5.36-1.18-8.1-.38-5.54-.2-11.29.7-17.14,1.7-11.74,5.92-23.47,11.84-35.27,5.89-11.81,13.43-23.6,21.41-36.03,7.98-12.45,16.04-25.12,24.14-37.97,4.04-6.43,8.05-12.83,12.04-19.18,3.96-6.35,7.97-12.76,11.85-19.34,7.76-13.14,15.09-26.99,20.28-42.01,2.58-7.5,4.6-15.29,5.8-23.23.58-3.97,1.02-7.93,1.15-12.15.16-2.08.02-4.13,0-6.18,0-2.05-.21-4.08-.41-6.1-.42-4.06-1.1-8.07-2.02-12-6.93,6.93-16.52,12.82-26.66,16.3.03.75.04,1.5,0,2.25-.05,1.41.02,2.84-.18,4.23l-.19,2.1c-.05.69-.12,1.4-.26,2.16-.25,1.48-.41,2.96-.73,4.44-1.13,5.93-2.86,11.89-5.13,17.87-4.54,11.97-11.12,23.92-18.59,36.11-3.73,6.1-7.7,12.29-11.73,18.63-3.56,5.63-7.15,11.3-10.75,16.99-.08-.09-.15-.17-.24-.27-1.02-1.11-2.52-2.78-4.46-4.98-3.87-4.4-9.51-10.97-15.97-19.91-3.21-4.48-6.58-9.57-9.87-15.33-3.29-5.75-6.46-12.18-9.1-19.31-2.65-7.1-4.75-14.88-5.73-23.24-.55-4.17-.75-8.48-.67-12.85.03-4.38.54-8.81,1.33-13.24.78-4.44,2.08-8.83,3.79-13.09.15-.36.3-.72.46-1.07-5.17-3.93-9.75-8.56-13.59-13.77-1.32,3.05-2.41,6.13-3.33,9.23-1.64,5.6-2.69,11.19-3.09,16.64-.43,5.44-.46,10.75.03,15.83.44,5.09,1.22,9.98,2.35,14.62,2.15,9.31,5.49,17.68,9.26,25.02,3.76,7.35,7.95,13.72,12.13,19.27,4.18,5.56,8.32,10.32,12.2,14.43,7.78,8.19,14.35,13.91,18.85,17.72,2.25,1.9,3.99,3.32,5.17,4.26.12.1.21.17.33.26-.4.63-.8,1.26-1.2,1.89-8.1,12.85-16.05,25.58-23.84,38.17-7.79,12.58-15.75,25.58-22.25,39.62-6.5,13.98-11.5,29.24-13.06,44.93-.85,7.83-.76,15.8.21,23.66.58,3.93,1.25,7.84,2.35,11.67Z" fill="#010101"/><path d="M41.94,460.25c-16.33,40,15.96,74.12,15.96,74.12,27.34-31.74,26.49-64.21,26.49-64.21-24.25,3.36-42.45-9.91-42.45-9.91Z" fill="#010101"/><path d="M65.79,731.42c12.66,2.81,27.95-8.07,29.95-29.95,1.85-20.28-13.9-60.96-13.9-60.96,0,0-24.92,32.83-30,52.56-5.71,22.15,1.29,35.54,13.94,38.35Z" fill="#010101"/><path d="M25.43,561.81c-5.83,7.42-16.94,22.41-25.26,38.71v36.95c7.28-27.89,37.15-64.58,37.15-64.58-4.07-3.21-8.09-7.03-11.89-11.08Z" fill="#010101"/><path d="M.17,527.03v48.65c5.93-9.77,12.14-18.32,16.5-23.97-9.69-12-16.5-24.68-16.5-24.68Z" fill="#010101"/><path d="M116.28,616.04c14.23-20.78,23.71-37.81,29.88-50.36v-45.99s-8.38,29.94-43.88,80.44c0,0,6.22,6.02,14,15.92Z" fill="#010101"/><path d="M141.06,658.66c2.35,6.31,4.14,12.87,5.09,19.56v-79.53c-5.23,9.19-11.71,19.72-19.74,31.48,5.41,8.3,10.69,17.87,14.52,28.13.05.12.09.24.12.37Z" fill="#010101"/><path d="M288.35,36.88c-1.09,1.39-2.16,2.77-3.23,4.13-1.01,1.41-1.93,2.86-2.88,4.26-.46.71-.95,1.39-1.37,2.12-.41.73-.82,1.46-1.23,2.18-.79,1.46-1.66,2.85-2.35,4.32-1.38,2.93-2.77,5.77-3.79,8.69-1.18,2.85-1.99,5.76-2.84,8.56-3.18,11.29-3.88,21.9-3.48,31.02.42,9.15,2.08,16.84,3.85,22.94,1.95,6.06,3.89,10.57,5.39,13.53,1.54,2.92,2.35,4.47,2.35,4.47,0,0-.57-1.64-1.66-4.76-1.05-3.12-2.31-7.81-3.38-13.89-.9-6.11-1.48-13.65-.78-22.26.72-8.58,2.58-18.28,6.64-28.11,1.06-2.44,2.08-4.95,3.42-7.37,1.19-2.49,2.72-4.86,4.2-7.3,3.2-4.73,6.74-9.45,11.11-13.66,4.34-4.22,9.21-8.16,14.64-11.57,5.47-3.35,11.41-6.22,17.72-8.45,1.6-.51,3.17-1.11,4.8-1.55,1.63-.43,3.28-.86,4.93-1.29,1.67-.32,3.35-.65,5.04-.98,1.69-.32,3.41-.45,5.12-.69,6.87-.73,13.92-.66,20.88.34,13.86,1.9,27.67,7.92,38.41,17.28,5.4,4.81,9.94,10.32,13.05,16.24,3.17,5.84,5.04,12.32,5.77,18.68.32,3.19.4,6.35.16,9.42-.29,3.06-.81,6.03-1.61,8.86-.86,2.79-1.93,5.45-3.24,7.9-1.3,2.43-2.91,4.67-4.69,6.71-3.56,4.06-7.87,7.17-12.26,9.01-4.44,1.86-8.7,2.41-13.09,1.89-4.33-.51-8.36-2.11-11.45-4.3-1.55-1.09-2.89-2.33-4-3.66-1.04-1.26-1.9-2.74-2.58-4.31-.69-1.57-1.18-3.25-1.43-4.93-.25-1.67-.38-3.36-.23-4.95.13-1.59.36-3.13.83-4.5.16-.73.51-1.33.73-2.01.35-.57.56-1.26.96-1.78,2.47-4.43,7.64-7.08,12.08-8.1,2.24-.54,4.37-.74,6.24-.71.97-.06,1.81.09,2.67.09.82.08,1.59.18,2.33.23.69.12,1.36.2,1.99.25.63.04,1.15.13,1.66.12,1.01,0,1.83-.23,2.36-.75.53-.52.72-1.31.5-2.43-.12-.55-.31-1.23-.69-1.89-.38-.66-.88-1.4-1.51-2.21-.67-.73-1.48-1.54-2.45-2.33-1-.71-2.13-1.58-3.46-2.2-2.64-1.42-5.99-2.51-9.9-2.91-3.91-.41-8.4-.14-13.18,1.35-1.2.34-2.38.89-3.62,1.37-1.2.58-2.43,1.21-3.63,1.94-1.17.8-2.43,1.55-3.55,2.57-.57.5-1.15,1-1.73,1.51-.52.55-1.04,1.1-1.57,1.65-8.34,9.16-12.07,23.79-7.55,38.34,1.15,3.64,2.83,7.29,5.18,10.73,2.31,3.34,5.13,6.39,8.35,9,6.44,5.24,14.35,8.76,22.92,10.16,4.29.69,8.76.85,13.31.36,4.61-.51,9-1.64,13.28-3.32,8.53-3.38,16.16-8.89,22.31-15.88,3.07-3.5,5.82-7.37,8.07-11.61,2.24-4.21,3.99-8.69,5.31-13.31,1.25-4.63,2.01-9.4,2.33-14.2.28-4.81.05-9.65-.59-14.45-1.37-9.59-4.5-19.07-9.62-27.73-5.04-8.66-11.85-16.12-19.61-22.32-15.39-12.03-33.65-18.44-51.5-19.65-8.9-.63-17.64-.03-25.95,1.54-8.32,1.55-16.21,4.1-23.48,7.45-7.28,3.32-13.98,7.37-20,11.92-5.99,4.6-11.22,9.79-15.73,15.2Z" fill="#010101"/><path d="M195.04,146.15h26.6C196.87,41.14,241.19.32,241.19.32c-36.81,4.24-49.35,39.26-53.36,68.16C163.94,36.91,123.69,6.39,56.34.31c0,0,101.27,22.18,138.7,145.84Z" fill="#010101"/><path d="M175.97,26.53s7.8-22.34,30.36-26.21h-78.11s37.15,13.11,47.75,26.21Z" fill="#010101"/><path d="M297.75.32h-33.21s-22.71,26.21-21.97,65.84c0,0,12.93-52.1,55.18-65.84Z" fill="#010101"/><path d="M330.86,76.92c0-5.47-4.44-9.91-9.91-9.91s-9.91,4.44-9.91,9.91,4.44,9.91,9.91,9.91,9.91-4.44,9.91-9.91Z" fill="#010101"/><circle cx="351.45" cy="49.29" r="7.35" fill="#010101"/><path d="M389.8,53.71c2.74,0,4.96-2.22,4.96-4.97s-2.22-4.97-4.96-4.97-4.97,2.22-4.97,4.97,2.22,4.97,4.97,4.97Z" fill="#010101"/><path d="M303.34,126.43c0,8.21,6.65,14.86,14.86,14.86s14.86-6.65,14.86-14.86-6.65-14.86-14.86-14.86-14.86,6.65-14.86,14.86Z" fill="#010101"/><path d="M446.06,20.62c.36-.15.71-.31,1.07-.46,4.26-1.71,8.65-3.01,13.09-3.79,4.43-.8,8.86-1.31,13.24-1.33,4.37-.08,8.68.13,12.85.67,8.37.98,16.15,3.08,23.24,5.73,7.12,2.64,13.56,5.81,19.31,9.1,5.75,3.29,10.85,6.66,15.33,9.87,8.94,6.46,15.5,12.11,19.91,15.97,2.2,1.94,3.87,3.44,4.98,4.46.1.09.17.16.27.24-5.69,3.6-11.36,7.19-16.99,10.75-6.34,4.03-12.53,7.99-18.63,11.73-12.19,7.47-24.15,14.05-36.11,18.59-5.98,2.27-11.94,4.01-17.87,5.13-1.48.31-2.96.47-4.44.73-.75.14-1.46.21-2.16.26l-2.1.19c-1.39.19-2.82.12-4.23.18-.75.04-1.5.03-2.25,0-3.48,10.14-9.37,19.72-16.3,26.66,3.93.91,7.94,1.6,12,2.02,2.02.2,4.04.4,6.1.41,2.05.03,4.1.16,6.18,0,4.22-.13,8.18-.57,12.15-1.15,7.94-1.2,15.73-3.21,23.23-5.79,15.02-5.19,28.86-12.52,42.01-20.28,6.58-3.89,12.99-7.89,19.34-11.85,6.35-3.99,12.75-8,19.18-12.04,12.85-8.1,25.52-16.16,37.97-24.14,12.43-7.98,24.22-15.52,36.03-21.41,11.8-5.92,23.53-10.14,35.27-11.84,5.84-.91,11.59-1.08,17.14-.7,2.75.28,5.49.57,8.1,1.18,1.34.23,2.6.65,3.9.95,1.23.41,2.47.74,3.67,1.23,9.67,3.62,18.22,10.34,23.34,18.34,5.24,8.02,6.86,17.1,5.01,26.16-1.8,9.04-6.79,17.63-13.27,24.22-3.25,3.3-6.87,6.14-10.68,8.42-3.83,2.29-8.02,4.17-12.23,5.58-8.49,2.75-17.27,3.89-25.68,3.81-8.42-.01-16.45-1.19-23.86-2.85-14.84-3.5-27.27-8.97-37.22-13.73-9.97-4.81-17.55-9.02-22.72-11.8-5.16-2.81-7.87-4.29-7.87-4.29,0,0,2.46,1.87,7.13,5.44,4.72,3.52,11.62,8.77,21.01,14.97,9.41,6.14,21.32,13.39,36.82,19.05,7.77,2.73,16.4,5.04,25.9,6.11,9.47,1.12,19.86.96,30.64-1.37,5.39-1.22,10.78-2.99,16.18-5.54,5.4-2.57,10.58-5.89,15.35-9.92,4.78-4.03,9.11-8.82,12.83-14.28,3.7-5.47,6.78-11.67,8.75-18.51,1.97-6.83,2.8-14.34,1.97-21.95-.74-7.62-3.3-15.07-6.97-21.85-3.67-6.81-8.65-12.83-14.4-18.03-5.75-5.23-12.42-9.48-19.72-12.77-1.81-.84-3.73-1.52-5.61-2.24-1.88-.59-3.76-1.28-5.69-1.75-3.83-1.1-7.74-1.77-11.67-2.35-7.86-.97-15.84-1.06-23.66-.21-15.68,1.55-30.95,6.56-44.93,13.06-14.05,6.5-27.04,14.45-39.62,22.25-12.58,7.79-25.31,15.74-38.17,23.84-.63.4-1.26.8-1.89,1.2-.09-.11-.16-.2-.26-.33-.94-1.18-2.36-2.91-4.26-5.17-3.81-4.49-9.53-11.06-17.72-18.85-4.11-3.87-8.88-8.02-14.43-12.2-5.55-4.18-11.93-8.37-19.27-12.13-7.34-3.78-15.72-7.11-25.02-9.26-4.64-1.13-9.53-1.91-14.62-2.35-5.09-.5-10.39-.46-15.83-.03-5.45.41-11.04,1.45-16.64,3.09-3.09.92-6.17,2.01-9.23,3.33,5.21,3.83,9.83,8.42,13.77,13.59Z" fill="#010101"/><path d="M534.37,57.9s-34.13-32.29-74.12-15.96c0,0,13.26,18.2,9.91,42.45,0,0,32.47.85,64.21-26.49Z" fill="#010101"/><path d="M701.46,95.75c21.88-2,32.76-17.3,29.95-29.95-2.81-12.66-16.2-19.65-38.35-13.94-19.72,5.08-52.56,30-52.56,30,0,0,40.68,15.75,60.96,13.9Z" fill="#010101"/><path d="M572.9,37.33S609.59,7.45,637.48.17h-36.95c-16.3,8.32-31.3,19.43-38.71,25.26,4.05,3.81,7.87,7.83,11.08,11.89Z" fill="#010101"/><path d="M575.68.17h-48.65s12.67,6.8,24.68,16.5c5.66-4.36,14.2-10.57,23.97-16.5Z" fill="#010101"/><path d="M600.13,102.27c-50.5,35.5-80.44,43.88-80.44,43.88h45.99c12.55-6.16,29.58-15.64,50.36-29.88-9.89-7.78-15.92-14-15.92-14Z" fill="#010101"/><path d="M667.94,146.15h10.27c-6.68-.95-13.24-2.74-19.56-5.09-.12-.03-.24-.08-.37-.12-10.26-3.84-19.83-9.11-28.13-14.52-11.76,8.03-22.29,14.51-31.48,19.74h69.26Z" fill="#010101"/></g></svg>