<?xml version="1.0" encoding="UTF-8"?><svg id="Layer_2" xmlns="http://www.w3.org/2000/svg" viewBox="0 0 194 16.32"><g id="Objects"><polygon points="93.47 12.63 95.74 11.53 96.85 12.63 95.74 13.74 93.47 12.63" fill="#0a2620"/><polygon points="100.84 12.63 98.56 13.74 97.45 12.63 98.56 11.53 100.84 12.63" fill="#0a2620"/><polygon points="97.15 16.32 96.05 14.04 97.15 12.93 98.26 14.04 97.15 16.32" fill="#0a2620"/><polygon points="97.15 8.95 98.26 11.22 97.15 12.33 96.05 11.22 97.15 8.95" fill="#0a2620"/><polygon points="94.05 9.53 95.55 10.05 95.55 11.03 94.57 11.03 94.05 9.53" fill="#0a2620"/><polygon points="100.13 15.61 98.63 15.09 98.63 14.11 99.61 14.11 100.13 15.61" fill="#0a2620"/><polygon points="94.05 15.61 94.57 14.11 95.55 14.11 95.55 15.09 94.05 15.61" fill="#0a2620"/><polygon points="100.13 9.53 99.61 11.03 98.63 11.03 98.63 10.05 100.13 9.53" fill="#0a2620"/><polygon points="93.47 3.69 95.74 2.58 96.85 3.69 95.74 4.79 93.47 3.69" fill="#0a2620"/><polygon points="100.84 3.69 98.56 4.79 97.45 3.69 98.56 2.58 100.84 3.69" fill="#0a2620"/><polygon points="97.15 7.37 96.05 5.09 97.15 3.99 98.26 5.09 97.15 7.37" fill="#0a2620"/><polygon points="97.15 0 98.26 2.28 97.15 3.38 96.05 2.28 97.15 0" fill="#0a2620"/><polygon points="94.05 .59 95.55 1.11 95.55 2.09 94.57 2.09 94.05 .59" fill="#0a2620"/><polygon points="100.13 6.67 98.63 6.15 98.63 5.17 99.61 5.17 100.13 6.67" fill="#0a2620"/><polygon points="94.05 6.67 94.57 5.17 95.55 5.17 95.55 6.15 94.05 6.67" fill="#0a2620"/><polygon points="100.13 .59 99.61 2.09 98.63 2.09 98.63 1.11 100.13 .59" fill="#0a2620"/><polygon points="103.62 11.84 102.52 9.57 103.62 8.46 104.73 9.57 103.62 11.84" fill="#0a2620"/><polygon points="103.62 4.47 104.73 6.75 103.62 7.86 102.52 6.75 103.62 4.47" fill="#0a2620"/><polygon points="107.31 8.16 105.03 9.26 103.93 8.16 105.03 7.05 107.31 8.16" fill="#0a2620"/><polygon points="99.94 8.16 102.22 7.05 103.32 8.16 102.22 9.26 99.94 8.16" fill="#0a2620"/><polygon points="100.53 11.26 101.05 9.76 102.03 9.76 102.03 10.74 100.53 11.26" fill="#0a2620"/><polygon points="106.6 5.18 106.08 6.68 105.1 6.68 105.1 5.7 106.6 5.18" fill="#0a2620"/><polygon points="106.6 11.26 105.1 10.74 105.1 9.76 106.08 9.76 106.6 11.26" fill="#0a2620"/><polygon points="100.53 5.18 102.03 5.7 102.03 6.68 101.05 6.68 100.53 5.18" fill="#0a2620"/><polygon points="90.68 11.84 89.57 9.57 90.68 8.46 91.78 9.57 90.68 11.84" fill="#0a2620"/><polygon points="90.68 4.47 91.78 6.75 90.68 7.86 89.57 6.75 90.68 4.47" fill="#0a2620"/><polygon points="94.36 8.16 92.08 9.26 90.98 8.16 92.08 7.05 94.36 8.16" fill="#0a2620"/><polygon points="86.99 8.16 89.27 7.05 90.37 8.16 89.27 9.26 86.99 8.16" fill="#0a2620"/><polygon points="87.58 11.26 88.1 9.76 89.08 9.76 89.08 10.74 87.58 11.26" fill="#0a2620"/><polygon points="93.66 5.18 93.14 6.68 92.16 6.68 92.16 5.7 93.66 5.18" fill="#0a2620"/><polygon points="93.66 11.26 92.16 10.74 92.16 9.76 93.14 9.76 93.66 11.26" fill="#0a2620"/><polygon points="87.58 5.18 89.08 5.7 89.08 6.68 88.1 6.68 87.58 5.18" fill="#0a2620"/><path d="M182.45,9.13l-72.79,1.2c-.94.02-1.72-.73-1.73-1.68-.02-.94.73-1.72,1.68-1.73.02,0,.04,0,.06,0l72.79,1.2c.28,0,.5.23.49.51,0,.27-.22.49-.49.49Z" fill="#0a2620"/><polygon points="194 8.63 184.28 3.91 179.57 8.63 184.28 13.34 194 8.63" fill="#0a2620"/><polygon points="183.02 8.63 176.77 5.6 173.74 8.63 176.77 11.66 183.02 8.63" fill="#0a2620"/><polygon points="175.79 8.63 172.09 6.83 170.29 8.63 172.09 10.43 175.79 8.63" fill="#0a2620"/><path d="M11.55,8.13l72.79-1.2c.94-.02,1.72.73,1.73,1.68.02.94-.73,1.72-1.68,1.73-.02,0-.04,0-.06,0l-72.79-1.2c-.28,0-.5-.23-.49-.51,0-.27.22-.49.49-.49Z" fill="#0a2620"/><polygon points="0 8.63 9.72 13.34 14.43 8.63 9.72 3.91 0 8.63" fill="#0a2620"/><polygon points="10.98 8.63 17.23 11.66 20.26 8.63 17.23 5.6 10.98 8.63" fill="#0a2620"/><polygon points="18.21 8.63 21.91 10.43 23.71 8.63 21.91 6.83 18.21 8.63" fill="#0a2620"/></g></svg>