<?xml version="1.0" encoding="UTF-8"?><svg id="Layer_2" xmlns="http://www.w3.org/2000/svg" viewBox="0 0 194 24.93"><g id="Objects"><path d="M11.55,15.92l72.79-1.2c.94-.02,1.72.73,1.73,1.68.02.94-.73,1.72-1.68,1.73-.02,0-.04,0-.06,0l-72.79-1.2c-.28,0-.5-.23-.49-.51,0-.27.22-.49.49-.49Z" fill="#0a2620"/><polygon points="0 16.42 9.72 11.71 14.43 16.42 9.72 21.14 0 16.42" fill="#0a2620"/><polygon points="88.65 16.42 93.9 13.87 96.45 16.42 93.9 18.97 88.65 16.42" fill="#0a2620"/><polygon points="105.66 16.42 100.4 18.97 97.85 16.42 100.4 13.87 105.66 16.42" fill="#0a2620"/><polygon points="97.15 24.93 94.6 19.67 97.15 17.12 99.7 19.67 97.15 24.93" fill="#0a2620"/><polygon points="97.15 7.92 99.7 13.18 97.15 15.73 94.6 13.18 97.15 7.92" fill="#0a2620"/><polygon points="90 9.28 93.46 10.48 93.46 12.74 91.2 12.74 90 9.28" fill="#0a2620"/><polygon points="104.02 23.3 100.56 22.1 100.56 19.84 102.82 19.84 104.02 23.3" fill="#0a2620"/><polygon points="90 23.3 91.2 19.84 93.46 19.84 93.46 22.1 90 23.3" fill="#0a2620"/><polygon points="104.02 9.28 102.82 12.74 100.56 12.74 100.56 10.48 104.02 9.28" fill="#0a2620"/><path d="M93.94,6.73c-.18-2.73-2.3-5.03-4.83-5.4-2.49-.46-5.19,1.04-6.03,3.34-.43,1.17-.51,2.58-.75,3.99-.14.71-.27,1.43-.57,2.16-.29.72-.78,1.43-1.49,1.9-.72.45-1.54.59-2.3.6-.78.03-1.57-.19-2.24-.58-1.34-.8-2.16-2.33-2.05-3.82h.42c.1,1.33.9,2.52,2.04,3.05.57.25,1.18.4,1.8.34.64-.04,1.23-.21,1.69-.53.89-.69,1.21-2,1.4-3.33.19-1.35.26-2.77.76-4.25,1.11-3.02,4.53-4.75,7.55-4.04,1.5.34,2.85,1.21,3.77,2.4.89,1.21,1.35,2.71,1.25,4.16h-.42Z" fill="#0a2620"/><path d="M182.45,16.92l-72.79,1.2c-.94.02-1.72-.73-1.73-1.68-.02-.94.73-1.72,1.68-1.73.02,0,.04,0,.06,0l72.79,1.2c.28,0,.5.23.49.51,0,.27-.22.49-.49.49Z" fill="#0a2620"/><polygon points="194 16.42 184.28 11.71 179.57 16.42 184.28 21.14 194 16.42" fill="#0a2620"/><path d="M99.64,6.73c-.11-1.45.35-2.95,1.25-4.16.92-1.19,2.27-2.06,3.77-2.4,3.02-.72,6.45,1.02,7.55,4.04.5,1.48.56,2.9.76,4.25.19,1.33.51,2.64,1.4,3.33.46.32,1.05.48,1.69.53.62.07,1.23-.08,1.8-.34,1.14-.53,1.95-1.72,2.04-3.05h.42c.11,1.48-.71,3.02-2.05,3.82-.67.39-1.47.61-2.24.58-.76,0-1.57-.15-2.3-.6-.71-.47-1.19-1.18-1.49-1.9-.3-.72-.43-1.45-.57-2.16-.25-1.41-.33-2.81-.75-3.99-.84-2.3-3.55-3.8-6.03-3.34-2.52.37-4.65,2.67-4.83,5.4h-.42Z" fill="#0a2620"/></g></svg>