<?xml version="1.0" encoding="UTF-8"?><svg id="Layer_2" xmlns="http://www.w3.org/2000/svg" viewBox="0 0 194 19.83"><g id="Objects"><path d="M11.55,9.34l72.79-1.2c.94-.02,1.72.73,1.73,1.68.02.94-.73,1.72-1.68,1.73-.02,0-.04,0-.06,0l-72.79-1.2c-.28,0-.5-.23-.49-.51,0-.27.22-.49.49-.49Z" fill="#0a2620"/><polygon points="0 9.84 9.72 5.13 14.43 9.84 9.72 14.56 0 9.84" fill="#0a2620"/><polygon points="8.81 9.84 18.52 5.13 23.24 9.84 18.52 14.56 8.81 9.84" fill="#0a2620"/><polygon points="18.43 9.84 28.15 5.13 32.86 9.84 28.15 14.56 18.43 9.84" fill="#0a2620"/><polygon points="89.87 2.9 93.33 4.1 93.33 6.36 91.07 6.36 89.87 2.9" fill="#0a2620"/><polygon points="103.89 16.93 100.43 15.73 100.43 13.47 102.69 13.47 103.89 16.93" fill="#0a2620"/><polygon points="89.87 16.93 91.07 13.47 93.33 13.47 93.33 15.73 89.87 16.93" fill="#0a2620"/><polygon points="103.89 2.9 102.69 6.36 100.43 6.36 100.43 4.1 103.89 2.9" fill="#0a2620"/><polygon points="86.97 9.91 90.26 8.32 91.86 9.91 90.26 11.51 86.97 9.91" fill="#0a2620"/><polygon points="106.8 9.91 103.5 11.51 101.9 9.91 103.5 8.32 106.8 9.91" fill="#0a2620"/><polygon points="96.88 19.83 95.28 16.53 96.88 14.94 98.48 16.53 96.88 19.83" fill="#0a2620"/><polygon points="96.88 0 98.48 3.29 96.88 4.89 95.28 3.29 96.88 0" fill="#0a2620"/><rect x="94.66" y="7.7" width="4.44" height="4.44" transform="translate(35.39 -65.6) rotate(45)" fill="#0a2620"/><path d="M182.45,10.34l-72.79,1.2c-.94.02-1.72-.73-1.73-1.68-.02-.94.73-1.72,1.68-1.73.02,0,.04,0,.06,0l72.79,1.2c.28,0,.5.23.49.51,0,.27-.22.49-.49.49Z" fill="#0a2620"/><polygon points="194 9.84 184.28 14.56 179.57 9.84 184.28 5.13 194 9.84" fill="#0a2620"/><polygon points="185.19 9.84 175.47 14.56 170.76 9.84 175.47 5.13 185.19 9.84" fill="#0a2620"/><polygon points="175.57 9.84 165.85 14.56 161.13 9.84 165.85 5.13 175.57 9.84" fill="#0a2620"/></g></svg>