<?xml version="1.0" encoding="UTF-8"?><svg id="Layer_2" xmlns="http://www.w3.org/2000/svg" viewBox="0 0 194.14 20.72"><g id="Objects"><polygon points="91.14 15.92 93.05 10.4 96.66 10.4 96.66 14.01 91.14 15.92" fill="#0a2620"/><polygon points="103.16 3.9 101.25 9.42 97.64 9.42 97.64 5.81 103.16 3.9" fill="#0a2620"/><polygon points="103.16 15.92 97.64 14.01 97.64 10.4 101.25 10.4 103.16 15.92" fill="#0a2620"/><polygon points="91.14 3.9 96.66 5.81 96.66 9.42 93.05 9.42 91.14 3.9" fill="#0a2620"/><polygon points="87.04 9.91 90.34 8.32 91.93 9.91 90.34 11.51 87.04 9.91" fill="#0a2620"/><polygon points="106.87 9.91 103.58 11.51 101.98 9.91 103.58 8.32 106.87 9.91" fill="#0a2620"/><polygon points="96.96 19.83 95.36 16.53 96.96 14.94 98.55 16.53 96.96 19.83" fill="#0a2620"/><polygon points="96.96 0 98.55 3.29 96.96 4.89 95.36 3.29 96.96 0" fill="#0a2620"/><path d="M11.55,9.41l72.79-1.2c.94-.02,1.72.73,1.73,1.68.02.94-.73,1.72-1.68,1.73-.02,0-.04,0-.06,0l-72.79-1.2c-.28,0-.5-.23-.49-.51,0-.27.22-.49.49-.49Z" fill="#0a2620"/><polygon points="0 9.91 9.72 5.2 14.43 9.91 9.72 14.62 0 9.91" fill="#0a2620"/><polygon points="8.83 9.91 18.55 5.2 23.26 9.91 18.55 14.62 8.83 9.91" fill="#0a2620"/><polygon points="17.56 9.91 24.13 6.73 27.31 9.91 24.13 13.09 17.56 9.91" fill="#0a2620"/><polygon points="24.06 9.91 30.63 6.73 33.81 9.91 30.63 13.09 24.06 9.91" fill="#0a2620"/><polygon points="29.94 9.91 34.48 7.71 36.68 9.91 34.48 12.11 29.94 9.91" fill="#0a2620"/><path d="M84.48,4.07c-2.24.14-4.13,1.89-4.43,3.96-.16,1.02,0,2.09.51,2.99.49.9,1.32,1.63,2.24,1.97.96.35,2.12.43,3.27.63.58.11,1.18.22,1.77.46.59.24,1.17.64,1.56,1.22.37.59.49,1.26.49,1.89.02.64-.16,1.29-.47,1.84-.66,1.1-1.92,1.78-3.14,1.68v-.34c1.09-.08,2.07-.74,2.51-1.68.21-.47.33-.97.28-1.48-.04-.52-.17-1.01-.43-1.39-.56-.73-1.64-1-2.73-1.16-1.11-.17-2.28-.21-3.49-.61-2.47-.91-3.88-3.72-3.32-6.2.28-1.23,1-2.34,1.97-3.1.99-.73,2.23-1.11,3.42-1.02v.34Z" fill="#0a2620"/><path d="M182.59,10.41l-72.79,1.2c-.94.02-1.72-.73-1.73-1.68-.02-.94.73-1.72,1.68-1.73.02,0,.04,0,.06,0l72.79,1.2c.28,0,.5.23.49.51,0,.27-.22.49-.49.49Z" fill="#0a2620"/><polygon points="194.14 9.91 184.43 5.2 179.71 9.91 184.43 14.62 194.14 9.91" fill="#0a2620"/><polygon points="185.31 9.91 175.59 5.2 170.88 9.91 175.59 14.62 185.31 9.91" fill="#0a2620"/><polygon points="176.58 9.91 170.02 6.73 166.83 9.91 170.02 13.09 176.58 9.91" fill="#0a2620"/><polygon points="170.08 9.91 163.52 6.73 160.33 9.91 163.52 13.09 170.08 9.91" fill="#0a2620"/><polygon points="164.21 9.91 159.66 7.71 157.46 9.91 159.66 12.11 164.21 9.91" fill="#0a2620"/><path d="M109.66,3.72c1.19-.09,2.42.29,3.42,1.02.98.76,1.69,1.86,1.97,3.1.57,2.48-.84,5.29-3.32,6.2-1.22.41-2.39.44-3.49.61-1.09.16-2.17.43-2.73,1.16-.26.38-.4.86-.43,1.39-.06.51.07,1.01.28,1.48.43.94,1.42,1.6,2.51,1.68v.34c-1.22.09-2.48-.58-3.14-1.68-.32-.55-.5-1.2-.47-1.84,0-.62.12-1.29.49-1.89.39-.58.97-.98,1.56-1.22.6-.24,1.19-.35,1.77-.46,1.16-.19,2.31-.28,3.27-.63.91-.34,1.75-1.07,2.24-1.97.52-.9.67-1.96.51-2.99-.3-2.07-2.2-3.82-4.43-3.96v-.34Z" fill="#0a2620"/></g></svg>