<?xml version="1.0" encoding="UTF-8"?><svg id="Layer_2" xmlns="http://www.w3.org/2000/svg" xmlns:xlink="http://www.w3.org/1999/xlink" viewBox="0 0 631.43 764.46"><defs><radialGradient id="radial-gradient" cx="316.24" cy="354.68" fx="324.47" fy="231.7" r="363.36" gradientUnits="userSpaceOnUse"><stop offset="0" stop-color="#efd96c"/><stop offset="1" stop-color="#826106"/></radialGradient></defs><g id="Layer_1-2"><path d="M122.99,583.55h18.97c7.74,0,14.09,5.95,14.09,13.21s-6.35,13.21-14.09,13.21h-11.84v14h-7.12v-40.41ZM141.96,603.21c3.79,0,6.89-2.9,6.89-6.46s-3.1-6.46-6.89-6.46h-11.84v12.92h11.84Z"/><path d="M180.11,583.55h18.96c7.74,0,14.09,5.95,14.09,13.21,0,4.93-2.86,9.21-7.12,11.46l6.97,15.74h-7.74l-6.27-14h-11.69v14h-7.2v-40.41ZM199.07,603.21c3.79,0,6.89-2.9,6.89-6.46s-3.1-6.46-6.89-6.46h-11.77v12.92h11.77Z"/><path d="M236.37,603.79c0-11.17,9.68-20.24,21.52-20.24s21.6,9.07,21.6,20.24-9.68,20.17-21.6,20.17-21.52-9.07-21.52-20.17ZM272.28,603.79c0-7.47-6.42-13.5-14.4-13.5s-14.32,6.02-14.32,13.5,6.42,13.42,14.32,13.42,14.4-6.02,14.4-13.42Z"/><path d="M302.31,608.73v-3.34h7.12v3.34c0,4.72,4.1,8.49,9.06,8.49s9.06-3.77,9.06-8.49v-25.18h7.2v25.18c0,8.42-7.28,15.24-16.26,15.24s-16.18-6.82-16.18-15.24Z"/><path d="M361.43,583.55h31.04v6.75h-23.84v10.09h11.92v6.75h-11.92v10.08h23.84v6.75h-31.04v-40.41Z"/><path d="M413.75,603.72c0-11.32,9.91-20.46,21.83-20.46,6.81,0,13.39,3.12,17.49,8.2l-5.88,4.06c-2.79-3.48-6.97-5.44-11.61-5.44-7.97,0-14.55,6.02-14.55,13.64s6.58,13.57,14.55,13.57c4.64,0,8.82-1.96,11.61-5.44l5.88,4.06c-4.18,5.22-10.6,8.2-17.49,8.2-11.92,0-21.83-9.14-21.83-20.39Z"/><path d="M488.86,590.3h-13.16v-6.75h33.44v6.75h-13.16v33.67h-7.12v-33.67Z"/><path d="M40.5,639.87c5.27,0,10.22,1.21,14.85,3.62,4.63,2.42,8.7,5.75,12.2,9.99,3.5,4.25,6.23,9.14,8.2,14.67,1.97,5.53,2.95,11.42,2.95,17.65s-.97,12.06-2.9,17.47c-1.93,5.42-4.62,10.15-8.05,14.2-3.43,4.05-7.38,7.23-11.85,9.53-4.47,2.3-9.23,3.45-14.3,3.45s-10.22-1.21-14.85-3.62c-4.63-2.41-8.68-5.75-12.15-9.99-3.47-4.25-6.18-9.13-8.15-14.67-1.97-5.53-2.95-11.38-2.95-17.53s.93-11.8,2.8-17.18c1.87-5.38,4.48-10.15,7.85-14.32,3.37-4.17,7.28-7.42,11.75-9.76,4.47-2.34,9.33-3.51,14.6-3.51ZM39.4,650.15c-6.67,0-11.83,2.59-15.5,7.77-3.67,5.18-5.5,12.02-5.5,20.51,0,3.35.3,6.94.9,10.75.6,3.82,1.52,7.54,2.75,11.16,1.23,3.62,2.82,6.92,4.75,9.88,1.93,2.96,4.2,5.34,6.8,7.13,2.6,1.79,5.6,2.69,9,2.69,4.53,0,8.38-1.19,11.55-3.56,3.17-2.38,5.57-5.69,7.2-9.93,1.63-4.25,2.45-9.13,2.45-14.67,0-3.04-.28-6.43-.85-10.17-.57-3.74-1.47-7.46-2.7-11.16-1.23-3.7-2.8-7.09-4.7-10.17-1.9-3.08-4.18-5.55-6.85-7.42-2.67-1.87-5.77-2.8-9.3-2.8Z"/><path d="M155.77,721.92c1,0,1.5.58,1.5,1.75v3.51c0,1.17-.5,1.75-1.5,1.75h-30.7c-1,0-1.5-.58-1.5-1.75v-3.51c0-1.17.5-1.75,1.5-1.75h.6c1.67,0,2.9-.56,3.7-1.69.8-1.13,1.2-2.47,1.2-4.03,0-1.79-.43-3.58-1.3-5.38l-9.1-19.87c-2,.23-4.17.35-6.5.35h-7.5v19.52c0,3.12.5,5.75,1.5,7.89,1,2.14,2.73,3.21,5.2,3.21h.6c1,0,1.5.58,1.5,1.75v3.51c0,1.17-.5,1.75-1.5,1.75h-30.7c-1,0-1.5-.58-1.5-1.75v-3.51c0-1.17.5-1.75,1.5-1.75h.7c2.53,0,4.28-1.07,5.25-3.21.97-2.14,1.45-4.77,1.45-7.89v-51.43c0-3.19-.52-5.84-1.55-7.95-1.03-2.1-2.95-3.16-5.75-3.16-1,0-1.5-.58-1.5-1.75v-3.51c0-1.17.5-1.75,1.5-1.75h36.7c5.4,0,10.1,1.13,14.1,3.39,4,2.26,7.1,5.26,9.3,9s3.3,7.83,3.3,12.27c0,3.97-.9,7.83-2.7,11.57-1.8,3.74-4.87,6.82-9.2,9.23l10.9,24.08c1.33,2.88,2.72,5.46,4.15,7.71,1.43,2.26,3.38,3.39,5.85,3.39h.5ZM111.97,683c6.67,0,11.55-1.52,14.65-4.56,3.1-3.04,4.65-7.21,4.65-12.51s-1.43-9.66-4.3-12.86c-2.87-3.19-6.8-4.79-11.8-4.79h-9v34.71h5.8Z"/><path d="M217.39,641.27c.33,0,.72-.06,1.15-.18.43-.12.88-.45,1.35-.99.27-.31.57-.47.9-.47.53,0,.93.35,1.2,1.05l7.9,17.06c.2.47.3.82.3,1.05,0,.62-.27,1.09-.8,1.4l-4.2,2.69c-.4.23-.73.35-1,.35-.4,0-.77-.35-1.1-1.05l-.3-.7c-1.67-3.9-4.07-6.66-7.2-8.3-3.13-1.64-6.73-2.45-10.8-2.45h-4.9v60.08c0,3.12.5,5.75,1.5,7.89,1,2.14,2.77,3.21,5.3,3.21h.7c1,0,1.5.58,1.5,1.75v3.51c0,1.17-.5,1.75-1.5,1.75h-30.8c-1,0-1.5-.58-1.5-1.75v-3.51c0-1.17.5-1.75,1.5-1.75h.6c2.53,0,4.3-1.07,5.3-3.21,1-2.14,1.5-4.77,1.5-7.89v-60.08h-4.9c-4.07,0-7.67.82-10.8,2.45-3.13,1.64-5.53,4.4-7.2,8.3l-.3.7c-.33.7-.7,1.05-1.1,1.05-.27,0-.6-.12-1-.35l-4.2-2.69c-.53-.31-.8-.78-.8-1.4,0-.23.1-.58.3-1.05l7.9-17.06c.33-.7.73-1.05,1.2-1.05.33,0,.63.16.9.47.47.55.92.88,1.35.99.43.12.82.18,1.15.18h50.9Z"/><path d="M307.2,710.81c0,3.12.48,5.75,1.45,7.89.97,2.14,2.72,3.21,5.25,3.21h.6c1,0,1.5.58,1.5,1.75v3.51c0,1.17-.5,1.75-1.5,1.75h-30.7c-1,0-1.5-.58-1.5-1.75v-3.51c0-1.17.5-1.75,1.5-1.75h.6c2.53,0,4.3-1.07,5.3-3.21,1-2.14,1.5-4.77,1.5-7.89v-22.21h-34.2v22.21c0,3.12.5,5.75,1.5,7.89,1,2.14,2.77,3.21,5.3,3.21h.6c1,0,1.5.58,1.5,1.75v3.51c0,1.17-.5,1.75-1.5,1.75h-30.7c-1,0-1.5-.58-1.5-1.75v-3.51c0-1.17.5-1.75,1.5-1.75h.6c2.53,0,4.28-1.07,5.25-3.21.97-2.14,1.45-4.77,1.45-7.89v-51.43c0-3.12-.48-5.75-1.45-7.89-.97-2.14-2.72-3.21-5.25-3.21h-.6c-1,0-1.5-.58-1.5-1.75v-3.51c0-1.17.5-1.75,1.5-1.75h30.7c1,0,1.5.58,1.5,1.75v3.51c0,1.17-.5,1.75-1.5,1.75h-.6c-2.53,0-4.3,1.07-5.3,3.21-1,2.14-1.5,4.77-1.5,7.89v19.99h34.2v-19.99c0-3.12-.5-5.75-1.5-7.89-1-2.14-2.77-3.21-5.3-3.21h-.6c-1,0-1.5-.58-1.5-1.75v-3.51c0-1.17.5-1.75,1.5-1.75h30.7c1,0,1.5.58,1.5,1.75v3.51c0,1.17-.5,1.75-1.5,1.75h-.6c-2.53,0-4.28,1.07-5.25,3.21-.97,2.14-1.45,4.77-1.45,7.89v51.43Z"/><path d="M355.91,639.87c5.27,0,10.22,1.21,14.85,3.62,4.63,2.42,8.7,5.75,12.2,9.99,3.5,4.25,6.23,9.14,8.2,14.67,1.97,5.53,2.95,11.42,2.95,17.65s-.97,12.06-2.9,17.47c-1.93,5.42-4.62,10.15-8.05,14.2-3.43,4.05-7.38,7.23-11.85,9.53-4.47,2.3-9.23,3.45-14.3,3.45s-10.22-1.21-14.85-3.62c-4.63-2.41-8.68-5.75-12.15-9.99-3.47-4.25-6.18-9.13-8.15-14.67-1.97-5.53-2.95-11.38-2.95-17.53s.93-11.8,2.8-17.18c1.87-5.38,4.48-10.15,7.85-14.32,3.37-4.17,7.28-7.42,11.75-9.76,4.47-2.34,9.33-3.51,14.6-3.51ZM354.81,650.15c-6.67,0-11.83,2.59-15.5,7.77-3.67,5.18-5.5,12.02-5.5,20.51,0,3.35.3,6.94.9,10.75.6,3.82,1.52,7.54,2.75,11.16,1.23,3.62,2.82,6.92,4.75,9.88,1.93,2.96,4.2,5.34,6.8,7.13,2.6,1.79,5.6,2.69,9,2.69,4.53,0,8.38-1.19,11.55-3.56,3.17-2.38,5.57-5.69,7.2-9.93,1.63-4.25,2.45-9.13,2.45-14.67,0-3.04-.28-6.43-.85-10.17-.57-3.74-1.47-7.46-2.7-11.16-1.23-3.7-2.8-7.09-4.7-10.17-1.9-3.08-4.18-5.55-6.85-7.42-2.67-1.87-5.77-2.8-9.3-2.8Z"/><path d="M428.97,641.27c8,0,15.02,1.75,21.05,5.26,6.03,3.51,10.73,8.53,14.1,15.08,3.37,6.54,5.05,14.34,5.05,23.38s-1.53,17.2-4.6,23.79c-3.07,6.58-7.4,11.59-13,15.02-5.6,3.43-12.2,5.14-19.8,5.14h-33.6c-1,0-1.5-.58-1.5-1.75v-3.51c0-1.17.5-1.75,1.5-1.75h.7c2.2,0,3.87-.97,5-2.92,1.13-1.95,1.7-4.67,1.7-8.18v-51.43c0-7.4-2.43-11.1-7.3-11.1h-.1c-1,0-1.5-.58-1.5-1.75v-3.51c0-1.17.5-1.75,1.5-1.75h30.8ZM421.47,711.4c0,3.04.43,5.45,1.3,7.25.87,1.79,2.9,2.69,6.1,2.69,7.93,0,14.1-2.88,18.5-8.65,4.4-5.77,6.6-15,6.6-27.7,0-11.3-2.27-20.24-6.8-26.82-4.53-6.58-11.53-9.88-21-9.88h-4.7v63.11Z"/><path d="M511.79,639.87c5.27,0,10.22,1.21,14.85,3.62,4.63,2.42,8.7,5.75,12.2,9.99,3.5,4.25,6.23,9.14,8.2,14.67,1.97,5.53,2.95,11.42,2.95,17.65s-.97,12.06-2.9,17.47c-1.93,5.42-4.62,10.15-8.05,14.2-3.43,4.05-7.38,7.23-11.85,9.53-4.47,2.3-9.23,3.45-14.3,3.45s-10.22-1.21-14.85-3.62c-4.63-2.41-8.68-5.75-12.15-9.99-3.47-4.25-6.18-9.13-8.15-14.67-1.97-5.53-2.95-11.38-2.95-17.53s.93-11.8,2.8-17.18c1.87-5.38,4.48-10.15,7.85-14.32,3.37-4.17,7.28-7.42,11.75-9.76,4.47-2.34,9.33-3.51,14.6-3.51ZM510.69,650.15c-6.67,0-11.83,2.59-15.5,7.77-3.67,5.18-5.5,12.02-5.5,20.51,0,3.35.3,6.94.9,10.75.6,3.82,1.52,7.54,2.75,11.16,1.23,3.62,2.82,6.92,4.75,9.88,1.93,2.96,4.2,5.34,6.8,7.13,2.6,1.79,5.6,2.69,9,2.69,4.53,0,8.38-1.19,11.55-3.56,3.17-2.38,5.57-5.69,7.2-9.93,1.63-4.25,2.45-9.13,2.45-14.67,0-3.04-.28-6.43-.85-10.17-.57-3.74-1.47-7.46-2.7-11.16-1.23-3.7-2.8-7.09-4.7-10.17-1.9-3.08-4.18-5.55-6.85-7.42-2.67-1.87-5.77-2.8-9.3-2.8Z"/><path d="M628.83,721.1c1.07,0,1.6.66,1.6,1.99v3.86c0,1.33-.53,1.99-1.6,1.99h-29.7c-1.13,0-1.7-.66-1.7-1.99v-3.86c0-1.32.57-1.99,1.7-1.99h.2c.73,0,1.6-.17,2.6-.53s1.5-1.11,1.5-2.28c0-.47-.12-1.01-.35-1.64-.23-.62-.65-1.32-1.25-2.1l-16.6-23.61-14.5,21.86c-1.07,1.56-1.88,2.9-2.45,4.03-.57,1.13-.85,2.01-.85,2.63,0,1.09.9,1.64,2.7,1.64h2.2c1.13,0,1.7.66,1.7,1.99v3.86c0,1.33-.57,1.99-1.7,1.99h-23.5c-1.13,0-1.7-.66-1.7-1.99v-3.86c0-1.32.57-1.99,1.7-1.99h.5c2.13,0,3.83-.64,5.1-1.93,1.27-1.29,2.87-3.37,4.8-6.25l20.2-30.27-17.7-25.25c-3.93-5.53-7.23-8.3-9.9-8.3h-.2c-1.13,0-1.7-.66-1.7-1.99v-3.86c0-1.32.57-1.99,1.7-1.99h29c1.13,0,1.7.66,1.7,1.99v3.86c0,1.33-.53,1.99-1.6,1.99h-.2c-2.73,0-4.1.66-4.1,1.99,0,1.01.63,2.38,1.9,4.09l13.2,18.82,11.2-16.6c1-1.56,1.8-2.88,2.4-3.97.6-1.09.9-1.95.9-2.57,0-1.09-.9-1.64-2.7-1.64h-1.1c-1.13,0-1.7-.66-1.7-1.99v-3.97c0-1.32.57-1.99,1.7-1.99h23.5c1.13,0,1.7.66,1.7,1.99v3.97c0,1.33-.57,1.99-1.7,1.99h-1.6c-2.07,0-3.75.64-5.05,1.93s-2.92,3.37-4.85,6.25l-16.9,24.89,21.4,30.51c3.87,5.53,7.13,8.3,9.8,8.3h.3Z"/><path d="M312.33,0v10.79c.01,1.21.03,2.4,0,3.59v5.42h-22.25v6.22h22.25v17.85h-41.25v6.22h41.25v60.01c-.39,9.68-2.84,19.19-7.29,28.56-16.99,35.9-48.81,59.09-81.91,82.64l-52.93,37.68c-16.64,11.83-30.62,24.97-43.76,39.91-29.36,33.41-42.1,74.41-36.82,117.38,4.84,39.27,26.42,73.7,59.77,98.75l1.48,16.01c-10.85-.71-19.24,5.22-20.18,14.6-.77,7.8,5.05,18.2,16.2,18.2h168.83s0-6,0-6l-166.47.1c-7,.02-12.07-5.66-11.64-11.06.51-6.46,5.8-9.86,13.38-9.86l164.73.06V0h-3.39ZM149.83,506.75c-34.72-26.47-53.88-65.37-54.56-106.78-1.04-61.94,36.13-105.97,87.33-142.15l55.87-39.5c21.79-15.41,40.88-32.12,57.48-51.29-9.97,21.73-24.56,38.4-39.07,56.68-15.95,20.08-31.55,38.3-44.62,59.93-27.35,41.76-35.97,89.74-25.14,137.71-21.9,23.53-34.6,51.5-37.29,85.4ZM158.66,530.24c-2.25-1.6-1.69-6.21-.95-8.43l13.62,8.97c-4.44-.03-9.24,1.23-12.67-.54ZM185.26,530.28c-10.87-2.88-19.21-11.97-28.55-17.49.05-30.4,11.08-59.04,32.22-83.53,11.01,39.66,33.6,72.19,65.91,101.07l-69.58-.05ZM266.52,531.24c-35.46-28.33-62.72-66.77-71.96-108.59,30.15-30.82,72.49-48.94,117.61-49.85l.03,157.76-45.68.68ZM192.91,414.98c-8.13-39.64-2.5-77.58,16.5-113.16,8.83-16.91,18.5-30.5,29.44-44.84l38.35-48.6c14.41-17.64,24.43-36.43,34.72-56.95l.41,215.34c-45.77.88-87.39,17.95-119.42,48.21Z" fill="#020202"/><path d="M171.33,530.78c-4.44-.03-9.24,1.23-12.67-.54-2.25-1.6-1.69-6.21-.95-8.43l13.62,8.97Z" fill="#f9f0c5"/><path d="M254.84,530.33l-69.58-.05c-10.87-2.88-19.21-11.97-28.55-17.49.05-30.4,11.08-59.04,32.22-83.53,11.01,39.66,33.6,72.19,65.91,101.07Z" fill="#f7edaa"/><path d="M312.2,530.56l-45.68.68c-35.46-28.33-62.72-66.77-71.96-108.59,30.15-30.82,72.49-48.94,117.61-49.85l.03,157.76Z" fill="#f9f0c5"/><path d="M312.33,366.77c-45.77.88-87.39,17.95-119.42,48.21-8.13-39.64-2.5-77.58,16.5-113.16,8.83-16.91,18.5-30.5,29.44-44.84l38.35-48.6c14.41-17.64,24.43-36.43,34.72-56.95l.41,215.34Z" fill="#efd96c"/><path d="M295.95,167.03c-9.97,21.73-24.56,38.4-39.07,56.68-15.95,20.08-31.55,38.3-44.62,59.93-27.35,41.76-35.97,89.74-25.14,137.71-21.9,23.53-34.6,51.5-37.29,85.4-34.72-26.47-53.88-65.37-54.56-106.78-1.04-61.94,36.13-105.97,87.33-142.15l55.87-39.5c21.79-15.41,40.88-32.12,57.48-51.29Z" fill="#eacb15"/><path d="M541.82,416.27c5.28-42.97-7.46-83.97-36.81-117.38-13.14-14.94-27.13-28.08-43.77-39.91l-52.93-37.68c-33.1-23.55-64.92-46.74-81.91-82.64-4.45-9.37-6.9-18.88-7.28-28.56v-60.01h39.25v-6.22h-39.25v-17.85h22.25v-6.22h-22.25v-5.42c-.04-1.19-.02-2.38,0-3.59V0h-3.4v537.07l164.73-.06c7.58,0,12.88,3.4,13.39,9.86.42,5.4-4.65,11.08-11.65,11.06l-166.47-.1v6.01h168.83c11.15-.01,16.97-10.41,16.2-18.21-.93-9.38-9.32-15.31-20.18-14.6l1.48-16.01c33.35-25.05,54.93-59.48,59.77-98.75ZM319.52,151.43c10.29,20.52,20.32,39.31,34.72,56.95l38.35,48.6c10.94,14.34,20.61,27.93,29.44,44.84,19,35.58,24.63,73.52,16.5,113.16-32.03-30.26-73.65-47.33-119.41-48.21l.4-215.34ZM319.24,530.56l.03-157.76c45.12.91,87.46,19.03,117.61,49.85-9.23,41.82-36.5,80.26-71.96,108.59l-45.68-.68ZM472.78,530.24c-3.43,1.77-8.23.51-12.66.54l13.61-8.97c.74,2.22,1.3,6.83-.95,8.43ZM446.18,530.28l-69.58.05c32.31-28.88,54.9-61.41,65.91-101.07,21.14,24.49,32.17,53.13,32.22,83.53-9.34,5.52-17.67,14.61-28.55,17.49ZM444.32,421.35c10.84-47.97,2.22-95.95-25.14-137.71-13.06-21.63-28.67-39.85-44.62-59.93-14.51-18.28-29.09-34.95-39.07-56.68,16.61,19.17,35.69,35.88,57.49,51.29l55.86,39.5c51.2,36.18,88.37,80.21,87.33,142.15-.68,41.41-19.84,80.31-54.56,106.78-2.69-33.9-15.39-61.87-37.29-85.4Z" fill="#020202"/><path d="M482.19,557.93l-166.47-.1-166.47.1c-7,.02-12.07-5.66-11.64-11.06.51-6.46,5.8-9.86,13.38-9.86l164.73.06,164.73-.06c7.58,0,12.88,3.4,13.39,9.86.42,5.4-4.65,11.08-11.65,11.06Z" fill="#eacb15"/><path d="M472.78,530.24c-3.43,1.77-8.23.51-12.66.54l13.61-8.97c.74,2.22,1.3,6.83-.95,8.43Z" fill="#f9f0c5"/><path d="M436.88,422.65c-9.23,41.82-36.5,80.26-71.96,108.59l-45.68-.68.03-157.76c45.12.91,87.46,19.03,117.61,49.85Z" fill="#f9f0c5"/><path d="M474.73,512.79c-9.34,5.52-17.67,14.61-28.55,17.49l-69.58.05c32.31-28.88,54.9-61.41,65.91-101.07,21.14,24.49,32.17,53.13,32.22,83.53Z" fill="#f7edaa"/><path d="M536.17,399.97c-.68,41.41-19.84,80.31-54.56,106.78-2.69-33.9-15.39-61.87-37.29-85.4,10.84-47.97,2.22-95.95-25.14-137.71-13.06-21.63-28.67-39.85-44.62-59.93-14.51-18.28-29.09-34.95-39.07-56.68,16.61,19.17,35.69,35.88,57.49,51.29l55.86,39.5c51.2,36.18,88.37,80.21,87.33,142.15Z" fill="#eacb15"/><path d="M438.53,414.98c-32.03-30.26-73.65-47.33-119.41-48.21l.4-215.34c10.29,20.52,20.32,39.31,34.72,56.95l38.35,48.6c10.94,14.34,20.61,27.93,29.44,44.84,19,35.58,24.63,73.52,16.5,113.16Z" fill="#efd96c"/><polygon points="339.03 96.44 293.16 73.48 292.41 66.14 338.27 89.1 339.03 96.44" fill="#020202"/><path d="M158.23,521.81l13.62,8.97c-4.44-.03-9.24,1.23-12.67-.54-2.25-1.6-1.69-6.21-.95-8.43ZM255.36,530.33c-32.31-28.88-54.9-61.41-65.91-101.07-21.14,24.49-32.17,53.13-32.22,83.53,9.34,5.52,17.68,14.61,28.55,17.49l69.58.05ZM312.72,530.56l-.03-157.76c-45.12.91-87.46,19.03-117.61,49.85,9.24,41.82,36.5,80.26,71.96,108.59l45.68-.68ZM239.37,256.98c-10.94,14.34-20.61,27.93-29.44,44.84-19,35.58-24.63,73.52-16.5,113.16,32.03-30.26,73.65-47.33,119.42-48.21l-.41-215.34c-10.29,20.52-20.31,39.31-34.72,56.95l-38.35,48.6ZM187.64,421.35c-10.83-47.97-2.21-95.95,25.14-137.71,13.07-21.63,28.67-39.85,44.62-59.93,14.51-18.28,29.1-34.95,39.07-56.68-16.6,19.17-35.69,35.88-57.48,51.29l-55.87,39.5c-51.2,36.18-88.37,80.21-87.33,142.15.68,41.41,19.84,80.31,54.56,106.78,2.69-33.9,15.39-61.87,37.29-85.4ZM480.97,537.01l-164.73.06-164.73-.06c-7.58,0-12.87,3.4-13.38,9.86-.43,5.4,4.64,11.08,11.64,11.06l166.47-.1,166.47.1c7,.02,12.07-5.66,11.65-11.06-.51-6.46-5.81-9.86-13.39-9.86ZM473.3,530.24c2.25-1.6,1.69-6.21.95-8.43l-13.61,8.97c4.43-.03,9.23,1.23,12.66-.54ZM319.79,372.8l-.03,157.76,45.68.68c35.46-28.33,62.73-66.77,71.96-108.59-30.15-30.82-72.49-48.94-117.61-49.85ZM443.03,429.26c-11.01,39.66-33.6,72.19-65.91,101.07l69.58-.05c10.88-2.88,19.21-11.97,28.55-17.49-.05-30.4-11.08-59.04-32.22-83.53ZM449.36,257.82l-55.86-39.5c-21.8-15.41-40.88-32.12-57.49-51.29,9.98,21.73,24.56,38.4,39.07,56.68,15.95,20.08,31.56,38.3,44.62,59.93,27.36,41.76,35.98,89.74,25.14,137.71,21.9,23.53,34.6,51.5,37.29,85.4,34.72-26.47,53.88-65.37,54.56-106.78,1.04-61.94-36.13-105.97-87.33-142.15ZM422.55,301.82c-8.83-16.91-18.5-30.5-29.44-44.84l-38.35-48.6c-14.4-17.64-24.43-36.43-34.72-56.95l-.4,215.34c45.76.88,87.38,17.95,119.41,48.21,8.13-39.64,2.5-77.58-16.5-113.16Z" fill="url(#radial-gradient)"/></g></svg>