<?xml version="1.0" encoding="UTF-8"?><svg id="Layer_2" xmlns="http://www.w3.org/2000/svg" xmlns:xlink="http://www.w3.org/1999/xlink" viewBox="0 0 929.03 350.37"><defs><radialGradient id="radial-gradient" cx="128.54" cy="200.14" fx="128.54" fy="130.75" r="205.04" gradientUnits="userSpaceOnUse"><stop offset="0" stop-color="#efd96c"/><stop offset="1" stop-color="#826106"/></radialGradient></defs><g id="Layer_1-2"><path d="M310.93,155.94h18.97c7.74,0,14.09,5.95,14.09,13.21s-6.35,13.21-14.09,13.21h-11.84v14h-7.12v-40.41ZM329.9,175.6c3.79,0,6.89-2.9,6.89-6.46s-3.1-6.46-6.89-6.46h-11.84v12.92h11.84Z"/><path d="M368.05,155.94h18.96c7.74,0,14.09,5.95,14.09,13.21,0,4.93-2.86,9.21-7.12,11.46l6.97,15.74h-7.74l-6.27-14h-11.69v14h-7.2v-40.41ZM387.01,175.6c3.79,0,6.89-2.9,6.89-6.46s-3.1-6.46-6.89-6.46h-11.77v12.92h11.77Z"/><path d="M424.31,176.18c0-11.17,9.68-20.24,21.52-20.24s21.6,9.07,21.6,20.24-9.68,20.17-21.6,20.17-21.52-9.07-21.52-20.17ZM460.22,176.18c0-7.47-6.42-13.5-14.4-13.5s-14.32,6.02-14.32,13.5,6.42,13.42,14.32,13.42,14.4-6.02,14.4-13.42Z"/><path d="M490.26,181.12v-3.34h7.12v3.34c0,4.72,4.1,8.49,9.06,8.49s9.06-3.77,9.06-8.49v-25.18h7.2v25.18c0,8.42-7.28,15.24-16.25,15.24s-16.18-6.82-16.18-15.24Z"/><path d="M549.37,155.94h31.04v6.75h-23.84v10.09h11.92v6.75h-11.92v10.08h23.84v6.75h-31.04v-40.41Z"/><path d="M601.69,176.11c0-11.32,9.91-20.46,21.83-20.46,6.81,0,13.39,3.12,17.49,8.2l-5.88,4.06c-2.79-3.48-6.97-5.44-11.61-5.44-7.97,0-14.55,6.02-14.55,13.64s6.58,13.57,14.55,13.57c4.64,0,8.82-1.96,11.61-5.44l5.88,4.06c-4.18,5.22-10.6,8.2-17.49,8.2-11.92,0-21.83-9.14-21.83-20.39Z"/><path d="M676.8,162.69h-13.16v-6.75h33.44v6.75h-13.16v33.67h-7.12v-33.67Z"/><path d="M338.1,225.78c5.27,0,10.21,1.21,14.85,3.62,4.63,2.42,8.7,5.75,12.2,9.99,3.5,4.25,6.23,9.14,8.2,14.67,1.97,5.53,2.95,11.42,2.95,17.65s-.97,12.06-2.9,17.47c-1.93,5.42-4.62,10.15-8.05,14.2-3.43,4.05-7.38,7.23-11.85,9.53-4.47,2.3-9.23,3.45-14.3,3.45s-10.22-1.21-14.85-3.62c-4.63-2.41-8.68-5.75-12.15-9.99-3.47-4.25-6.18-9.13-8.15-14.67-1.97-5.53-2.95-11.38-2.95-17.53s.93-11.8,2.8-17.18c1.87-5.38,4.48-10.15,7.85-14.32,3.37-4.17,7.28-7.42,11.75-9.76,4.47-2.34,9.33-3.51,14.6-3.51ZM337,236.06c-6.67,0-11.83,2.59-15.5,7.77-3.67,5.18-5.5,12.02-5.5,20.51,0,3.35.3,6.94.9,10.75.6,3.82,1.52,7.54,2.75,11.16,1.23,3.62,2.82,6.92,4.75,9.88,1.93,2.96,4.2,5.34,6.8,7.13,2.6,1.79,5.6,2.69,9,2.69,4.53,0,8.38-1.19,11.55-3.56,3.17-2.38,5.57-5.69,7.2-9.93,1.63-4.25,2.45-9.13,2.45-14.67,0-3.04-.29-6.43-.85-10.17-.57-3.74-1.47-7.46-2.7-11.16-1.23-3.7-2.8-7.09-4.7-10.17-1.9-3.08-4.18-5.55-6.85-7.42-2.67-1.87-5.77-2.8-9.3-2.8Z"/><path d="M453.37,307.82c1,0,1.5.58,1.5,1.75v3.51c0,1.17-.5,1.75-1.5,1.75h-30.7c-1,0-1.5-.58-1.5-1.75v-3.51c0-1.17.5-1.75,1.5-1.75h.6c1.67,0,2.9-.56,3.7-1.69.8-1.13,1.2-2.47,1.2-4.03,0-1.79-.43-3.58-1.3-5.38l-9.1-19.87c-2,.23-4.17.35-6.5.35h-7.5v19.52c0,3.12.5,5.75,1.5,7.89,1,2.14,2.73,3.21,5.2,3.21h.6c1,0,1.5.58,1.5,1.75v3.51c0,1.17-.5,1.75-1.5,1.75h-30.7c-1,0-1.5-.58-1.5-1.75v-3.51c0-1.17.5-1.75,1.5-1.75h.7c2.53,0,4.28-1.07,5.25-3.21.96-2.14,1.45-4.77,1.45-7.89v-51.43c0-3.19-.52-5.84-1.55-7.95-1.03-2.1-2.95-3.16-5.75-3.16-1,0-1.5-.58-1.5-1.75v-3.51c0-1.17.5-1.75,1.5-1.75h36.7c5.4,0,10.1,1.13,14.1,3.39,4,2.26,7.1,5.26,9.3,9s3.3,7.83,3.3,12.27c0,3.97-.9,7.83-2.7,11.57-1.8,3.74-4.87,6.82-9.2,9.23l10.9,24.08c1.33,2.88,2.72,5.46,4.15,7.71,1.43,2.26,3.38,3.39,5.85,3.39h.5ZM409.57,268.9c6.67,0,11.55-1.52,14.65-4.56s4.65-7.21,4.65-12.51-1.43-9.66-4.3-12.86c-2.87-3.19-6.8-4.79-11.8-4.79h-9v34.71h5.8Z"/><path d="M514.99,227.18c.33,0,.72-.06,1.15-.18.43-.12.88-.45,1.35-.99.27-.31.57-.47.9-.47.53,0,.93.35,1.2,1.05l7.9,17.06c.2.47.3.82.3,1.05,0,.62-.27,1.09-.8,1.4l-4.2,2.69c-.4.23-.73.35-1,.35-.4,0-.77-.35-1.1-1.05l-.3-.7c-1.67-3.9-4.07-6.66-7.2-8.3-3.13-1.64-6.73-2.45-10.8-2.45h-4.9v60.08c0,3.12.5,5.75,1.5,7.89,1,2.14,2.77,3.21,5.3,3.21h.7c1,0,1.5.58,1.5,1.75v3.51c0,1.17-.5,1.75-1.5,1.75h-30.8c-1,0-1.5-.58-1.5-1.75v-3.51c0-1.17.5-1.75,1.5-1.75h.6c2.53,0,4.3-1.07,5.3-3.21,1-2.14,1.5-4.77,1.5-7.89v-60.08h-4.9c-4.07,0-7.67.82-10.8,2.45-3.13,1.64-5.53,4.4-7.2,8.3l-.3.7c-.33.7-.7,1.05-1.1,1.05-.27,0-.6-.12-1-.35l-4.2-2.69c-.53-.31-.8-.78-.8-1.4,0-.23.1-.58.3-1.05l7.9-17.06c.33-.7.73-1.05,1.2-1.05.33,0,.63.16.9.47.47.55.92.88,1.35.99.43.12.82.18,1.15.18h50.9Z"/><path d="M604.8,296.72c0,3.12.48,5.75,1.45,7.89.97,2.14,2.72,3.21,5.25,3.21h.6c1,0,1.5.58,1.5,1.75v3.51c0,1.17-.5,1.75-1.5,1.75h-30.7c-1,0-1.5-.58-1.5-1.75v-3.51c0-1.17.5-1.75,1.5-1.75h.6c2.53,0,4.3-1.07,5.3-3.21,1-2.14,1.5-4.77,1.5-7.89v-22.21h-34.2v22.21c0,3.12.5,5.75,1.5,7.89,1,2.14,2.77,3.21,5.3,3.21h.6c1,0,1.5.58,1.5,1.75v3.51c0,1.17-.5,1.75-1.5,1.75h-30.7c-1,0-1.5-.58-1.5-1.75v-3.51c0-1.17.5-1.75,1.5-1.75h.6c2.53,0,4.28-1.07,5.25-3.21.97-2.14,1.45-4.77,1.45-7.89v-51.43c0-3.12-.48-5.75-1.45-7.89-.97-2.14-2.72-3.21-5.25-3.21h-.6c-1,0-1.5-.58-1.5-1.75v-3.51c0-1.17.5-1.75,1.5-1.75h30.7c1,0,1.5.58,1.5,1.75v3.51c0,1.17-.5,1.75-1.5,1.75h-.6c-2.53,0-4.3,1.07-5.3,3.21-1,2.14-1.5,4.77-1.5,7.89v19.99h34.2v-19.99c0-3.12-.5-5.75-1.5-7.89-1-2.14-2.77-3.21-5.3-3.21h-.6c-1,0-1.5-.58-1.5-1.75v-3.51c0-1.17.5-1.75,1.5-1.75h30.7c1,0,1.5.58,1.5,1.75v3.51c0,1.17-.5,1.75-1.5,1.75h-.6c-2.53,0-4.28,1.07-5.25,3.21-.97,2.14-1.45,4.77-1.45,7.89v51.43Z"/><path d="M653.51,225.78c5.27,0,10.22,1.21,14.85,3.62,4.63,2.42,8.7,5.75,12.2,9.99,3.5,4.25,6.23,9.14,8.2,14.67,1.97,5.53,2.95,11.42,2.95,17.65s-.97,12.06-2.9,17.47c-1.93,5.42-4.62,10.15-8.05,14.2-3.43,4.05-7.38,7.23-11.85,9.53-4.47,2.3-9.23,3.45-14.3,3.45s-10.22-1.21-14.85-3.62c-4.63-2.41-8.68-5.75-12.15-9.99-3.47-4.25-6.18-9.13-8.15-14.67-1.97-5.53-2.95-11.38-2.95-17.53s.93-11.8,2.8-17.18c1.87-5.38,4.48-10.15,7.85-14.32,3.37-4.17,7.28-7.42,11.75-9.76,4.47-2.34,9.33-3.51,14.6-3.51ZM652.41,236.06c-6.67,0-11.83,2.59-15.5,7.77-3.67,5.18-5.5,12.02-5.5,20.51,0,3.35.3,6.94.9,10.75.6,3.82,1.52,7.54,2.75,11.16,1.23,3.62,2.82,6.92,4.75,9.88,1.93,2.96,4.2,5.34,6.8,7.13,2.6,1.79,5.6,2.69,9,2.69,4.53,0,8.38-1.19,11.55-3.56,3.17-2.38,5.57-5.69,7.2-9.93,1.63-4.25,2.45-9.13,2.45-14.67,0-3.04-.28-6.43-.85-10.17-.57-3.74-1.47-7.46-2.7-11.16-1.23-3.7-2.8-7.09-4.7-10.17-1.9-3.08-4.18-5.55-6.85-7.42-2.67-1.87-5.77-2.8-9.3-2.8Z"/><path d="M726.58,227.18c8,0,15.02,1.75,21.05,5.26,6.03,3.51,10.73,8.53,14.1,15.08,3.37,6.54,5.05,14.34,5.05,23.38s-1.53,17.2-4.6,23.79c-3.07,6.58-7.4,11.59-13,15.02-5.6,3.43-12.2,5.14-19.8,5.14h-33.6c-1,0-1.5-.58-1.5-1.75v-3.51c0-1.17.5-1.75,1.5-1.75h.7c2.2,0,3.87-.97,5-2.92,1.13-1.95,1.7-4.67,1.7-8.18v-51.43c0-7.4-2.43-11.1-7.3-11.1h-.1c-1,0-1.5-.58-1.5-1.75v-3.51c0-1.17.5-1.75,1.5-1.75h30.8ZM719.08,297.3c0,3.04.43,5.45,1.3,7.25.87,1.79,2.9,2.69,6.1,2.69,7.93,0,14.1-2.88,18.5-8.65,4.4-5.77,6.6-15,6.6-27.7,0-11.3-2.27-20.24-6.8-26.82-4.53-6.58-11.53-9.88-21-9.88h-4.7v63.11Z"/><path d="M809.39,225.78c5.27,0,10.22,1.21,14.85,3.62,4.63,2.42,8.7,5.75,12.2,9.99,3.5,4.25,6.23,9.14,8.2,14.67,1.97,5.53,2.95,11.42,2.95,17.65s-.97,12.06-2.9,17.47c-1.93,5.42-4.62,10.15-8.05,14.2-3.43,4.05-7.38,7.23-11.85,9.53-4.47,2.3-9.23,3.45-14.3,3.45s-10.22-1.21-14.85-3.62c-4.63-2.41-8.68-5.75-12.15-9.99-3.47-4.25-6.18-9.13-8.15-14.67-1.97-5.53-2.95-11.38-2.95-17.53s.93-11.8,2.8-17.18c1.87-5.38,4.48-10.15,7.85-14.32,3.37-4.17,7.28-7.42,11.75-9.76,4.47-2.34,9.33-3.51,14.6-3.51ZM808.3,236.06c-6.67,0-11.83,2.59-15.5,7.77-3.67,5.18-5.5,12.02-5.5,20.51,0,3.35.3,6.94.9,10.75.6,3.82,1.52,7.54,2.75,11.16,1.23,3.62,2.82,6.92,4.75,9.88,1.93,2.96,4.2,5.34,6.8,7.13,2.6,1.79,5.6,2.69,9,2.69,4.53,0,8.38-1.19,11.55-3.56,3.17-2.38,5.57-5.69,7.2-9.93,1.63-4.25,2.45-9.13,2.45-14.67,0-3.04-.28-6.43-.85-10.17-.57-3.74-1.47-7.46-2.7-11.16-1.23-3.7-2.8-7.09-4.7-10.17-1.9-3.08-4.18-5.55-6.85-7.42-2.67-1.87-5.77-2.8-9.3-2.8Z"/><path d="M926.43,307c1.07,0,1.6.66,1.6,1.99v3.86c0,1.33-.53,1.99-1.6,1.99h-29.7c-1.13,0-1.7-.66-1.7-1.99v-3.86c0-1.32.57-1.99,1.7-1.99h.2c.73,0,1.6-.17,2.6-.53s1.5-1.11,1.5-2.28c0-.47-.12-1.01-.35-1.64-.23-.62-.65-1.32-1.25-2.1l-16.6-23.61-14.5,21.86c-1.07,1.56-1.88,2.9-2.45,4.03-.57,1.13-.85,2.01-.85,2.63,0,1.09.9,1.64,2.7,1.64h2.2c1.13,0,1.7.66,1.7,1.99v3.86c0,1.33-.57,1.99-1.7,1.99h-23.5c-1.13,0-1.7-.66-1.7-1.99v-3.86c0-1.32.57-1.99,1.7-1.99h.5c2.13,0,3.83-.64,5.1-1.93,1.27-1.29,2.87-3.37,4.8-6.25l20.2-30.27-17.7-25.25c-3.93-5.53-7.23-8.3-9.9-8.3h-.2c-1.13,0-1.7-.66-1.7-1.99v-3.86c0-1.32.57-1.99,1.7-1.99h29c1.13,0,1.7.66,1.7,1.99v3.86c0,1.33-.53,1.99-1.6,1.99h-.2c-2.73,0-4.1.66-4.1,1.99,0,1.01.63,2.38,1.9,4.09l13.2,18.82,11.2-16.6c1-1.56,1.8-2.88,2.4-3.97.6-1.09.9-1.95.9-2.57,0-1.09-.9-1.64-2.7-1.64h-1.1c-1.13,0-1.7-.66-1.7-1.99v-3.97c0-1.32.57-1.99,1.7-1.99h23.5c1.13,0,1.7.66,1.7,1.99v3.97c0,1.33-.57,1.99-1.7,1.99h-1.6c-2.07,0-3.75.64-5.05,1.93s-2.92,3.37-4.85,6.25l-16.9,24.89,21.4,30.51c3.87,5.53,7.13,8.3,9.8,8.3h.3Z"/><path d="M126.33,0v6.09c0,.68.02,1.35,0,2.03v3.06h-12.56v3.51h12.56v10.07h-23.28v3.51h23.28v33.86c-.22,5.46-1.6,10.83-4.11,16.12-9.59,20.26-27.54,33.34-46.22,46.63l-29.87,21.26c-9.39,6.68-17.28,14.09-24.69,22.52C4.87,187.51-2.32,210.65.66,234.9c2.73,22.16,14.91,41.59,33.73,55.72l.84,9.03c-6.12-.4-10.86,2.95-11.39,8.24-.43,4.4,2.85,10.27,9.14,10.27h95.27s0-3.39,0-3.39l-93.94.06c-3.95.01-6.81-3.19-6.57-6.24.29-3.65,3.27-5.56,7.55-5.56l92.96.03V0h-1.91ZM34.63,285.96c-19.59-14.94-30.4-36.89-30.79-60.26-.59-34.95,20.39-59.8,49.28-80.21l31.53-22.29c12.3-8.7,23.07-18.13,32.44-28.94-5.63,12.26-13.86,21.67-22.05,31.98-9,11.33-17.8,21.61-25.18,33.82-15.43,23.56-20.3,50.64-14.19,77.71-12.36,13.28-19.52,29.06-21.04,48.19ZM39.62,299.21c-1.27-.9-.95-3.5-.54-4.76l7.69,5.06c-2.51-.02-5.21.69-7.15-.3ZM54.63,299.23c-6.13-1.63-10.84-6.75-16.11-9.87.03-17.15,6.25-33.32,18.18-47.14,6.21,22.38,18.96,40.74,37.19,57.03l-39.26-.03ZM100.48,299.78c-20.01-15.99-35.39-37.68-40.61-61.28,17.01-17.39,40.91-27.62,66.37-28.13l.02,89.02-25.78.38ZM58.94,234.17c-4.59-22.37-1.41-43.78,9.31-63.86,4.98-9.54,10.44-17.21,16.61-25.3l21.64-27.42c8.13-9.95,13.79-20.56,19.59-32.14l.23,121.51c-25.83.5-49.31,10.13-67.39,27.2Z" fill="#020202"/><path d="M46.77,299.52c-2.51-.02-5.21.69-7.15-.3-1.27-.9-.95-3.5-.54-4.76l7.69,5.06Z" fill="#f9f0c5"/><path d="M93.89,299.26l-39.26-.03c-6.13-1.63-10.84-6.75-16.11-9.87.03-17.15,6.25-33.32,18.18-47.14,6.21,22.38,18.96,40.74,37.19,57.03Z" fill="#f7edaa"/><path d="M126.26,299.39l-25.78.38c-20.01-15.99-35.39-37.68-40.61-61.28,17.01-17.39,40.91-27.62,66.37-28.13l.02,89.02Z" fill="#f9f0c5"/><path d="M126.33,206.97c-25.83.5-49.31,10.13-67.39,27.2-4.59-22.37-1.41-43.78,9.31-63.86,4.98-9.54,10.44-17.21,16.61-25.3l21.64-27.42c8.13-9.95,13.79-20.56,19.59-32.14l.23,121.51Z" fill="#efd96c"/><path d="M117.09,94.25c-5.63,12.26-13.86,21.67-22.05,31.98-9,11.33-17.8,21.61-25.18,33.82-15.43,23.56-20.3,50.64-14.19,77.71-12.36,13.28-19.52,29.06-21.04,48.19-19.59-14.94-30.4-36.89-30.79-60.26-.59-34.95,20.39-59.8,49.28-80.21l31.53-22.29c12.3-8.7,23.07-18.13,32.44-28.94Z" fill="#eacb15"/><path d="M255.83,234.9c2.98-24.25-4.21-47.38-20.77-66.24-7.41-8.43-15.31-15.85-24.7-22.52l-29.87-21.26c-18.68-13.29-36.63-26.38-46.22-46.63-2.51-5.29-3.89-10.65-4.11-16.12V28.27h22.15v-3.51h-22.15v-10.07h12.56v-3.51h-12.56v-3.06c-.02-.67-.01-1.34,0-2.03V0h-1.92v303.06l92.96-.03c4.28,0,7.27,1.92,7.56,5.56.24,3.05-2.62,6.25-6.57,6.24l-93.94-.06v3.39h95.27c6.29,0,9.58-5.87,9.14-10.28-.52-5.29-5.26-8.64-11.39-8.24l.84-9.03c18.82-14.14,31-33.56,33.73-55.72ZM130.39,85.45c5.81,11.58,11.47,22.18,19.59,32.14l21.64,27.42c6.17,8.09,11.63,15.76,16.61,25.3,10.72,20.08,13.9,41.49,9.31,63.86-18.07-17.08-41.56-26.71-67.38-27.2l.23-121.51ZM130.23,299.39l.02-89.02c25.46.51,49.35,10.74,66.37,28.13-5.21,23.6-20.6,45.29-40.61,61.28l-25.78-.38ZM216.87,299.21c-1.94,1-4.64.29-7.14.3l7.68-5.06c.42,1.25.73,3.85-.54,4.76ZM201.86,299.23l-39.26.03c18.23-16.3,30.98-34.65,37.19-57.03,11.93,13.82,18.15,29.98,18.18,47.14-5.27,3.11-9.97,8.24-16.11,9.87ZM200.81,237.76c6.12-27.07,1.25-54.14-14.19-77.71-7.37-12.21-16.18-22.49-25.18-33.82-8.19-10.32-16.42-19.72-22.05-31.98,9.37,10.82,20.14,20.25,32.44,28.94l31.52,22.29c28.89,20.42,49.87,45.26,49.28,80.21-.38,23.37-11.2,45.32-30.79,60.26-1.52-19.13-8.68-34.91-21.04-48.19Z" fill="#020202"/><path d="M222.18,314.84l-93.94-.06-93.94.06c-3.95.01-6.81-3.19-6.57-6.24.29-3.65,3.27-5.56,7.55-5.56l92.96.03,92.96-.03c4.28,0,7.27,1.92,7.56,5.56.24,3.05-2.62,6.25-6.57,6.24Z" fill="#eacb15"/><path d="M216.87,299.21c-1.94,1-4.64.29-7.14.3l7.68-5.06c.42,1.25.73,3.85-.54,4.76Z" fill="#f9f0c5"/><path d="M196.61,238.5c-5.21,23.6-20.6,45.29-40.61,61.28l-25.78-.38.02-89.02c25.46.51,49.35,10.74,66.37,28.13Z" fill="#f9f0c5"/><path d="M217.97,289.36c-5.27,3.11-9.97,8.24-16.11,9.87l-39.26.03c18.23-16.3,30.98-34.65,37.19-57.03,11.93,13.82,18.15,29.98,18.18,47.14Z" fill="#f7edaa"/><path d="M252.64,225.7c-.38,23.37-11.2,45.32-30.79,60.26-1.52-19.13-8.68-34.91-21.04-48.19,6.12-27.07,1.25-54.14-14.19-77.71-7.37-12.21-16.18-22.49-25.18-33.82-8.19-10.32-16.42-19.72-22.05-31.98,9.37,10.82,20.14,20.25,32.44,28.94l31.52,22.29c28.89,20.42,49.87,45.26,49.28,80.21Z" fill="#eacb15"/><path d="M197.54,234.17c-18.07-17.08-41.56-26.71-67.38-27.2l.23-121.51c5.81,11.58,11.47,22.18,19.59,32.14l21.64,27.42c6.17,8.09,11.63,15.76,16.61,25.3,10.72,20.08,13.9,41.49,9.31,63.86Z" fill="#efd96c"/><polygon points="141.4 54.42 115.52 41.46 115.09 37.32 140.97 50.28 141.4 54.42" fill="#020202"/><path d="M39.37,294.45l7.69,5.06c-2.51-.02-5.21.69-7.15-.3-1.27-.9-.95-3.5-.54-4.76ZM94.18,299.26c-18.23-16.3-30.98-34.65-37.19-57.03-11.93,13.82-18.15,29.98-18.18,47.14,5.27,3.11,9.98,8.24,16.11,9.87l39.26.03ZM126.55,299.39l-.02-89.02c-25.46.51-49.35,10.74-66.37,28.13,5.21,23.6,20.6,45.29,40.61,61.28l25.78-.38ZM85.16,145.01c-6.17,8.09-11.63,15.76-16.61,25.3-10.72,20.08-13.9,41.49-9.31,63.86,18.07-17.08,41.56-26.71,67.39-27.2l-.23-121.51c-5.81,11.58-11.46,22.18-19.59,32.14l-21.64,27.42ZM55.97,237.76c-6.11-27.07-1.25-54.14,14.19-77.71,7.38-12.21,16.18-22.49,25.18-33.82,8.19-10.32,16.42-19.72,22.05-31.98-9.37,10.82-20.14,20.25-32.44,28.94l-31.53,22.29C24.53,165.9,3.55,190.75,4.14,225.7c.38,23.37,11.2,45.32,30.79,60.26,1.52-19.13,8.68-34.91,21.04-48.19ZM221.49,303.03l-92.96.03-92.96-.03c-4.28,0-7.26,1.92-7.55,5.56-.24,3.05,2.62,6.25,6.57,6.24l93.94-.06,93.94.06c3.95.01,6.81-3.19,6.57-6.24-.29-3.65-3.28-5.56-7.56-5.56ZM217.17,299.21c1.27-.9.95-3.5.54-4.76l-7.68,5.06c2.5-.02,5.21.69,7.14-.3ZM130.54,210.37l-.02,89.02,25.78.38c20.01-15.99,35.4-37.68,40.61-61.28-17.01-17.39-40.91-27.62-66.37-28.13ZM200.08,242.23c-6.21,22.38-18.96,40.74-37.19,57.03l39.26-.03c6.14-1.63,10.84-6.75,16.11-9.87-.03-17.15-6.25-33.32-18.18-47.14ZM203.66,145.49l-31.52-22.29c-12.3-8.7-23.07-18.13-32.44-28.94,5.63,12.26,13.86,21.67,22.05,31.98,9,11.33,17.81,21.61,25.18,33.82,15.44,23.56,20.3,50.64,14.19,77.71,12.36,13.28,19.52,29.06,21.04,48.19,19.59-14.94,30.4-36.89,30.79-60.26.59-34.95-20.39-59.8-49.28-80.21ZM188.53,170.31c-4.98-9.54-10.44-17.21-16.61-25.3l-21.64-27.42c-8.13-9.95-13.79-20.56-19.59-32.14l-.23,121.51c25.82.5,49.31,10.13,67.38,27.2,4.59-22.37,1.41-43.78-9.31-63.86Z" fill="url(#radial-gradient)"/></g></svg>